<?xml version="1.0" encoding="utf-8"?>
<!-- Generator: Adobe Illustrator 16.0.0, SVG Export Plug-In . SVG Version: 6.00 Build 0)  -->
<!DOCTYPE svg PUBLIC "-//W3C//DTD SVG 1.1//EN" "http://www.w3.org/Graphics/SVG/1.1/DTD/svg11.dtd">
<svg version="1.1" id="Layer_1" xmlns="http://www.w3.org/2000/svg" xmlns:xlink="http://www.w3.org/1999/xlink" x="0px" y="0px"
	 width="2400.208px" height="2400.208px" viewBox="0 0 2400.208 2400.208" enable-background="new 0 0 2400.208 2400.208"
	 xml:space="preserve">
<path fill-rule="evenodd" clip-rule="evenodd" fill="#FFFFFF" d="M1891.681,1627.578c31.256,81.398,62.26,162.137,93.468,243.41
	c-2.484,1.012-4.448,1.863-6.448,2.615c-61.494,23.141-124.635,40.652-188.682,55.027c-58.16,13.053-116.821,23.33-175.857,31.539
	c-50.514,7.023-101.187,12.52-152.007,16.773c-105.319,8.816-210.821,11.949-316.471,10.205
	c-63.396-1.045-126.713-3.961-189.939-8.887c-48.254-3.76-96.396-8.557-144.379-14.836
	c-97.637-12.779-194.287-30.602-289.128-57.463c-36.563-10.355-72.685-22.055-108.1-35.875c-1.819-0.711-3.605-1.504-6.037-2.523
	c31.982-81.004,63.803-161.6,95.784-242.602c4.713,1.77,8.78,3.309,12.855,4.822c50.314,18.705,101.956,32.814,154.298,44.477
	c57.997,12.922,116.545,22.633,175.461,30.273c56.34,7.307,112.868,12.623,169.556,16.172c92.475,5.791,185.025,7.184,277.645,4.279
	c46.584-1.461,93.107-3.936,139.554-7.701c72.573-5.885,144.813-14.5,216.563-27.057c54.385-9.52,108.37-20.85,161.361-36.416
	c24.724-7.264,49.054-15.863,73.56-23.863C1886.798,1629.277,1888.842,1628.55,1891.681,1627.578z M1633.47,1899.785
	c-7.662-52.729-15.177-104.613-22.967-156.93c-7.296,1.088-13.726,2.045-20.756,3.092c2.834,23.914,7.042,47.066,9.351,70.502
	c-1.193-1.061-1.908-2.215-2.474-3.436c-6.724-14.51-13.42-29.031-20.132-43.545c-2.602-5.625-5.242-11.23-7.833-16.859
	c-0.784-1.705-1.602-3.32-3.885-2.996c-6.054,0.859-12.103,1.752-18.717,2.713c3.901,26.719,7.634,52.596,11.468,78.457
	c3.851,25.979,7.326,52.018,11.62,78.293c7.456-1.096,14.148-1.412,20.781-3.482c-4.793-32.9-9.49-65.158-14.189-97.414
	c1.99,1.402,2.96,3.094,3.808,4.844c8.103,16.73,16.043,33.543,24.35,50.172c2.912,5.83,4.689,11.789,5.451,18.217
	c0.815,6.895,2.044,13.74,3.198,21.309C1619.577,1901.732,1626.034,1900.828,1633.47,1899.785z M1141.057,1777.466
	c-0.514,52.932-1.021,105.207-1.533,158.008c7.486,0.375,14.113,0.693,21.141-0.016c0.231-17.008,0.491-33.375,0.665-49.744
	c0.172-16.203,0.256-32.406,0.379-48.607c0.41-0.039,0.82-0.078,1.23-0.117c0.586,1.641,1.238,3.262,1.747,4.928
	c4.149,13.566,7.768,27.322,12.536,40.668c5.273,14.76,7.508,29.717,6.27,45.281c-0.2,2.51-0.029,5.051-0.029,7.969
	c7.464,0.219,14.112,0.793,21.237-0.174c0.291-52.811,1.449-105.064,1.324-157.73c-7.183,0-13.675,0-21.065,0
	c-0.246,23.748-0.489,47.33-0.733,70.91c-0.44,0.064-0.88,0.131-1.32,0.195c-6.86-23.83-13.722-47.66-20.604-71.57
	C1155.091,1777.466,1148.558,1777.466,1141.057,1777.466z M1117.538,1934.324c0.189-2.23,0.452-4.383,0.543-6.545
	c1.645-39.336,3.28-78.672,4.877-118.01c0.162-3.99,0.316-8.01,0.041-11.984c-0.826-11.961-7.127-19.904-18.158-21.309
	c-9.271-1.18-18.744-1.514-28.087-1.152c-9.254,0.359-15.706,5.654-18.35,14.688c-1.166,3.982-1.704,8.217-1.993,12.373
	c-0.527,7.572-0.64,15.174-0.957,22.762c-1.41,33.746-2.838,67.49-4.231,101.236c-0.078,1.898,0.096,3.807,0.157,5.848
	c3.922,0.197,7.107,0.424,10.296,0.5c3.325,0.08,6.652,0.02,10.539,0.02c0.429-9.668,0.847-19.004,1.256-28.342
	c0.416-9.508,0.821-19.016,1.223-28.336c8.382,0,15.868,0,24.011,0c-0.344,10.205-0.618,19.725-0.996,29.24
	c-0.377,9.488-1.175,18.969-0.972,29.012C1104.083,1934.324,1110.581,1934.324,1117.538,1934.324z M1353.536,1931.078
	c5.184-0.383,9.712-0.699,14.237-1.057c10.161-0.801,20.355-1.324,30.473-2.51c14.015-1.639,20.523-9.4,20.086-23.41
	c-0.168-5.389-0.741-10.766-1.157-16.146c-2.338-30.289-4.663-60.58-7.064-90.865c-0.22-2.771-0.719-5.564-1.461-8.242
	c-3.181-11.455-11.086-17.846-22.93-18.572c-2.983-0.184-6.002-0.135-8.986,0.07c-8.574,0.584-17.14,1.295-25.707,1.977
	c-2.948,0.234-5.891,0.527-9.564,0.859C1345.493,1825.9,1349.492,1878.189,1353.536,1931.078z M834.23,1777.464
	c0.432-16.826-6.058-24.893-19.875-27.508c-1.571-0.297-3.149-0.578-4.735-0.77c-7.926-0.965-15.839-2.432-23.791-2.701
	c-9.315-0.313-16.08,4.426-19.483,13.172c-1.506,3.871-2.507,8.023-3.122,12.141c-4.424,29.65-8.707,59.32-12.993,88.99
	c-0.857,5.932-1.882,11.871-2.226,17.84c-0.743,12.896,5.249,21.391,17.668,24.094c9.346,2.035,18.904,3.408,28.44,4.166
	c11.729,0.93,19.517-4.789,22.995-15.969c1.121-3.604,1.761-7.385,2.315-11.131c3.507-23.725,6.94-47.459,10.375-71.193
	C831.429,1797.324,833.01,1786.046,834.23,1777.464z M1228.069,1935.498c1.864,0.229,3.027,0.523,4.183,0.49
	c13.575-0.379,27.153-0.75,40.724-1.271c2.361-0.09,4.763-0.648,7.033-1.354c8.029-2.494,12.796-7.918,13.759-16.34
	c0.361-3.158,0.34-6.377,0.262-9.564c-0.56-22.961-1.154-45.922-1.787-68.883c-0.324-11.779-0.519-23.568-1.188-35.33
	c-0.971-17.059-10.592-26.166-27.671-26.711c-1.196-0.039-2.397-0.035-3.595,0c-10.381,0.311-20.763,0.613-31.142,0.98
	c-1.497,0.053-2.981,0.439-4.909,0.742C1225.188,1830.941,1226.628,1883.164,1228.069,1935.498z M940.901,1765.193
	c-4.475,52.967-8.875,105.039-13.31,157.527c2.231,0.379,3.944,0.795,5.679,0.947c10.149,0.889,20.298,1.799,30.46,2.529
	c4.373,0.314,8.8,0.553,13.16,0.238c10.052-0.727,16.076-6.096,18.355-15.949c0.447-1.934,0.642-3.938,0.813-5.922
	c2.281-26.27,4.553-52.539,6.789-78.814c0.763-8.955,1.6-17.912,2.084-26.887c0.97-17.959-7.167-27.934-24.957-30.338
	c-8.106-1.096-16.311-1.469-24.472-2.156C950.955,1765.986,946.406,1765.634,940.901,1765.193z M880.961,1918.164
	c16.477,0.549,24.478-5.695,27.339-19.223c0.496-2.344,0.851-4.723,1.126-7.102c3.147-27.197,6.293-54.393,9.375-81.598
	c0.967-8.533,2.276-17.08,2.469-25.641c0.3-13.369-6.791-21.596-19.833-23.631c-8.088-1.264-16.252-2.203-24.418-2.756
	c-15.201-1.033-23.673,5.912-26.219,20.965c-0.133,0.789-0.214,1.586-0.306,2.381c-3.535,30.57-7.083,61.141-10.587,91.715
	c-0.683,5.953-1.542,11.918-1.706,17.895c-0.37,13.521,6.238,21.875,19.242,24.078
	C866.101,1916.716,874.886,1917.431,880.961,1918.164z M1424.834,1766.507c5.639,53.002,11.167,104.971,16.76,157.541
	c7.348-0.82,13.972-1.561,21.067-2.352c-2.234-21.486-4.392-42.232-6.6-63.461c4.623-0.484,8.479-0.887,12.558-1.313
	c6.971,20.939,13.766,41.352,20.669,62.09c6.811-0.799,13.053-1.529,19.919-2.334c-7.343-21.771-14.405-42.713-21.478-63.686
	c8.234-5.928,10.264-14.027,9.838-23.035c-0.217-4.584-0.721-9.158-1.21-13.727c-1.189-11.125-2.126-22.289-3.753-33.35
	c-2.24-15.24-10.748-21.844-26.052-20.963c-1.197,0.068-2.393,0.176-3.584,0.301c-7.153,0.752-14.309,1.488-21.457,2.285
	C1436.206,1765.097,1430.911,1765.775,1424.834,1766.507z M704.179,1732.251c-9.087,52.418-18.074,104.045-26.877,156.211
	c7.406,1.234,13.822,3.131,20.792,3.045c4.633-23.559,7.819-46.822,12.502-70.104c9.431,1.527,18.021,2.92,26.899,4.359
	c1.488-6.602,3.026-12.455,2.98-18.805c-9.171-1.676-17.733-3.242-26.762-4.893c2.748-15.904,5.386-31.176,8.121-47.006
	c10.496,1.674,20.436,3.258,30.892,4.926c1.136-6.545,2.141-12.34,3.26-18.785C738.64,1738.205,721.982,1735.328,704.179,1732.251z
	 M1628.693,1739.982c8.992,52.598,17.806,104.15,26.716,156.27c7.287-1.27,13.871-2.416,20.954-3.65
	c-9.012-52.385-17.622-104.104-26.804-156.215C1642.326,1737.632,1635.907,1738.738,1628.693,1739.982z M1547.533,1911.861
	c-6.63-52.842-13.144-104.838-19.969-157.287c-7.324,0.963-13.77,1.811-20.989,2.76c6.658,52.584,13.243,104.576,19.91,157.215
	C1533.627,1913.636,1540.089,1912.812,1547.533,1911.861z M1703.544,1888.046c7.11-1.479,13.814-1.742,20.538-4.018
	c-1.123-2.1-1.845-3.51-2.62-4.889c-11.946-21.268-23.851-42.561-35.906-63.766c-1.772-3.117-2.476-6.113-2.074-9.67
	c1.951-17.283,3.748-34.584,5.577-51.881c0.834-7.885,1.617-15.775,2.521-24.621c-6.862,1.178-12.815,2.199-18.594,3.189
	c-0.406,1.465-0.732,2.211-0.812,2.984c-2.631,25.855-5.287,51.709-7.752,77.582c-0.19,1.99,0.612,4.313,1.592,6.139
	c8.794,16.383,17.727,32.691,26.627,49.018C1696.172,1874.593,1699.723,1881.06,1703.544,1888.046z M575.192,1882.15
	c-0.22-3.676-1.854-6.514-5.15-8.213c-1.408-0.727-2.962-1.193-4.485-1.666c-35.861-11.135-71.725-22.26-107.593-33.371
	c-1.523-0.473-3.065-0.988-4.636-1.186c-4.578-0.572-8.789,2.213-10.203,6.588c-1.326,4.102,0.328,8.629,4.162,10.879
	c1.356,0.797,2.923,1.279,4.441,1.75c36.243,11.252,72.489,22.492,108.75,33.682c1.88,0.58,3.909,1.016,5.856,0.975
	C571.438,1891.478,575.271,1887.244,575.192,1882.15z M1831.237,1896.433c0.991-0.258,2.937-0.68,4.832-1.266
	c35.493-10.977,70.981-21.967,106.466-32.971c1.713-0.531,3.463-1.049,5.055-1.854c4.462-2.25,6.385-7.088,4.776-11.627
	c-1.501-4.234-5.893-6.889-10.471-6.158c-1.763,0.281-3.479,0.893-5.195,1.426c-35.293,10.945-70.584,21.9-105.872,32.865
	c-1.714,0.531-3.481,1-5.072,1.797c-4.254,2.137-6.247,6.715-4.991,11.053C1821.983,1893.91,1825.668,1896.533,1831.237,1896.433z
	 M491.262,1746.388c-5.139,0.113-8.883,3.123-9.92,7.357c-0.968,3.951,0.758,8.252,4.423,10.258
	c1.724,0.943,3.703,1.477,5.617,2.012c34.243,9.586,68.491,19.15,102.749,28.688c1.716,0.477,3.512,0.9,5.276,0.926
	c4.306,0.061,7.813-2.639,8.959-6.594c1.227-4.236-0.44-8.652-4.277-10.848c-1.368-0.785-2.922-1.307-4.451-1.734
	c-34.824-9.732-69.656-19.439-104.49-29.139C493.62,1746.89,492.059,1746.576,491.262,1746.388z M631.191,1709.185
	c5.755,0.32,9.649-2.35,10.827-6.787c1.253-4.723-0.934-9.229-5.589-11.26c-1.455-0.635-3.032-1.004-4.569-1.434
	c-34.051-9.535-68.104-19.061-102.158-28.588c-1.154-0.322-2.298-0.723-3.474-0.922c-5.151-0.873-9.82,1.98-11.195,6.781
	c-1.299,4.533,0.983,9.203,5.614,11.252c1.452,0.643,3.017,1.045,4.554,1.475c34.057,9.512,68.116,19.014,102.176,28.51
	C628.91,1708.64,630.462,1709.001,631.191,1709.185z M1880.877,1674.72c0.053-5.818-4.548-10.256-10.069-9.863
	c-1.77,0.125-3.523,0.674-5.249,1.156c-34.06,9.512-68.113,19.037-102.164,28.58c-1.727,0.484-3.51,0.93-5.089,1.74
	c-3.925,2.014-5.874,6.506-4.832,10.625c1.081,4.279,4.668,7.15,9.232,7.043c1.96-0.047,3.943-0.561,5.853-1.092
	c33.876-9.422,67.743-18.877,101.608-28.34c1.729-0.482,3.478-0.965,5.113-1.686
	C1878.931,1681.277,1880.682,1678.316,1880.877,1674.72z M1797.264,1800.47c0.823-0.186,2.587-0.504,4.307-0.982
	c34.253-9.551,68.503-19.115,102.747-28.697c1.725-0.482,3.5-0.949,5.08-1.758c4.186-2.145,6.021-6.746,4.654-11.18
	c-1.259-4.088-5.252-6.922-9.62-6.588c-1.77,0.135-3.523,0.674-5.248,1.154c-34.057,9.516-68.109,19.043-102.157,28.588
	c-1.727,0.484-3.511,0.926-5.091,1.734c-3.965,2.033-5.9,6.455-4.866,10.607C1788.129,1797.605,1791.749,1800.394,1797.264,1800.47z
	 M546.466,1821.71c0.086-5.029-2.802-8.313-9.286-10.063c-20.638-5.574-41.3-11.059-61.955-16.57
	c-0.962-0.258-1.934-0.557-2.918-0.635c-4.601-0.369-8.782,2.518-10.061,6.869c-1.276,4.344,0.733,8.926,4.998,11.029
	c1.415,0.697,2.997,1.088,4.533,1.504c20.06,5.41,40.122,10.809,60.191,16.184c1.54,0.412,3.124,0.83,4.701,0.893
	C542.012,1831.134,546.376,1826.957,546.466,1821.71z M1859.14,1835.755c1.23-0.254,3.011-0.531,4.741-0.992
	c20.063-5.365,40.124-10.748,60.174-16.162c1.722-0.465,3.499-0.971,5.028-1.848c3.868-2.215,5.461-6.621,4.178-10.863
	c-1.231-4.066-5.247-6.906-9.594-6.631c-1.376,0.088-2.742,0.498-4.088,0.855c-20.265,5.387-40.527,10.779-60.779,16.211
	c-1.723,0.463-3.489,1.012-5.017,1.898c-3.865,2.24-5.53,6.752-4.251,10.857C1850.728,1832.916,1854.477,1835.675,1859.14,1835.755z
	 M510.807,1703.232c-4.989-0.145-8.87,2.639-10.137,6.807c-1.244,4.094,0.504,8.695,4.377,10.797
	c1.729,0.939,3.706,1.475,5.621,2.014c18.667,5.244,37.341,10.455,56.018,15.658c1.732,0.482,3.477,1.035,5.25,1.225
	c4.676,0.498,8.837-2.346,10.114-6.715c1.295-4.434-0.621-8.881-4.922-11.072c-1.41-0.717-2.973-1.174-4.507-1.604
	c-19.249-5.389-38.504-10.752-57.761-16.111C513.326,1703.802,511.767,1703.466,510.807,1703.232z M1895.282,1717.523
	c0.036-5.465-4.596-9.852-10.147-9.457c-1.573,0.113-3.134,0.602-4.668,1.027c-19.064,5.305-38.125,10.621-57.179,15.967
	c-1.725,0.482-3.488,0.988-5.065,1.809c-3.963,2.063-5.845,6.449-4.775,10.641c1.118,4.381,5.277,7.469,9.888,7.068
	c1.97-0.172,3.911-0.803,5.834-1.338c16.756-4.65,33.508-9.322,50.256-14.002c3.08-0.861,6.199-1.625,9.201-2.709
	C1892.972,1724.958,1895.255,1721.691,1895.282,1717.523z M594.381,1834.046c-0.113-3.68-2.055-6.871-5.759-8.375
	c-5.162-2.096-10.394-4.086-15.734-5.658c-5.476-1.609-10.342,1.045-12.032,5.988c-1.665,4.867,0.766,9.83,6.087,11.977
	c4.245,1.711,8.56,3.271,12.912,4.688c1.857,0.605,3.902,1,5.84,0.926C590.784,1843.398,594.537,1839.119,594.381,1834.046z
	 M1835.193,1833.976c-0.081-6.508-5.683-11.004-11.977-9.283c-5.739,1.566-11.418,3.611-16.817,6.109
	c-6.002,2.779-6.964,10.566-2.304,15.086c2.511,2.434,5.665,3.287,8.844,2.311c5.887-1.811,11.724-3.865,17.396-6.26
	C1833.709,1840.515,1835.152,1837.343,1835.193,1833.976z M608.704,1729.318c-4.838,0.104-7.693,2.02-9.42,5.512
	c-1.677,3.393-1.17,8.277,1.884,10.418c5.356,3.754,11.2,6.941,17.986,7.123c3.978,0.107,6.763-2.236,8.162-5.902
	c1.397-3.658,0.981-7.453-2.1-9.857C620.167,1732.667,614.162,1730.513,608.704,1729.318z M1797.297,1743.738
	c-0.157-6.484-5.885-10.857-12.178-9.211c-3.626,0.951-7.053,2.701-10.52,4.205c-5.796,2.514-8.252,7.268-6.456,12.287
	c1.828,5.113,6.873,7.512,12.737,5.598c3.96-1.291,7.811-3.014,11.541-4.883C1795.723,1750.082,1797.077,1746.978,1797.297,1743.738
	z"/>
<path fill-rule="evenodd" clip-rule="evenodd" fill="#FFFFFF" d="M1879.56,1154.653c-0.635,115.516-27.022,224.588-81.873,326.518
	c-4.357,8.098-9.06,16.012-13.642,23.986c-2.735,4.764-6.704,7.857-12.222,8.807c-12.054,2.07-22.295-9.102-18.884-20.854
	c0.874-3.014,2.558-5.846,4.167-8.584c37.24-63.373,62.484-131.242,76.563-203.342c10.053-51.48,14.009-103.438,11.586-155.791
	c-6.172-133.429-49.803-253.556-130.834-359.57c-85.49-111.848-196.099-188.098-331.126-228.432
	c-62.54-18.681-126.556-27.13-191.823-26.14c-218.618,3.317-418.821,115.456-536.17,300.553
	c-46.53,73.393-77.087,152.977-91.076,238.791c-8.174,50.146-10.33,100.589-6.589,151.294
	c7.002,94.934,32.935,184.275,78.781,267.76c4.331,7.887,9.122,15.518,13.508,23.373c4.333,7.76,2.793,16.377-3.604,21.688
	c-7.274,6.039-18.171,4.879-24.014-2.738c-2.059-2.686-3.715-5.689-5.443-8.615c-44.901-76.002-73.504-157.771-86.78-244.982
	c-7.311-48.025-9.626-96.29-6.675-144.765c6.868-112.818,40.021-217.406,99.479-313.486
	c59.991-96.942,139.348-174.229,237.962-231.503c70.224-40.786,145.538-67.691,225.58-81.458
	c47.496-8.17,95.334-11.374,143.423-9.127c132.627,6.195,253.857,46.701,362.297,123.493
	c113.31,80.24,194.658,185.728,244.497,315.354c18.158,47.229,30.16,96.065,36.821,146.232
	C1877.503,1093.495,1879.583,1123.988,1879.56,1154.653z"/>
<path fill-rule="evenodd" clip-rule="evenodd" fill="#FFFFFF" d="M773.61,829.34c-0.217-6.642,1.284-13.305,6.063-19.002
	c2.214-2.64,4.813-3.905,8.344-3.765c6.977,0.279,13.309,2.522,19.369,5.75c8.57,4.566,15.722,10.937,22.533,17.75
	c50.756,50.769,101.511,101.54,152.291,152.286c66.48,66.435,132.798,133.035,199.545,199.202
	c43.034,42.661,87.024,84.358,133.691,123.071c39.703,32.936,79.956,65.211,119.945,97.805
	c19.376,15.791,38.839,31.479,58.006,47.518c12.248,10.252,21.912,22.74,28.843,37.168c2.06,4.287,3.691,8.906,4.702,13.551
	c2.834,13.02-0.056,24.59-9.834,34.07c-0.717,0.695-1.428,1.398-2.165,2.074c-16.576,15.189-33.538,16.791-52.479,4.727
	c-11.733-7.475-21.604-17.141-30.775-27.488c-40.064-45.199-77.947-92.242-116.74-138.518
	c-40.598-48.43-81.758-96.373-125.277-142.229c-15.145-15.957-30.556-31.66-47.605-45.637
	c-11.096-9.096-23.537-15.872-37.009-20.646c-9.334-3.308-18.8-5.487-28.555-0.757c-1.873,0.908-4.737,0.267-7.017-0.237
	c-20.585-4.54-37.653-15.162-51.961-30.442c-21.048-22.478-42.07-44.98-63.116-67.459c-42.911-45.836-85.768-91.724-128.792-137.454
	c-10.777-11.455-19.298-24.467-27.563-37.689c-7.961-12.737-14.994-25.975-19.91-40.233
	C775.595,845.355,773.643,837.824,773.61,829.34z"/>
<path fill-rule="evenodd" clip-rule="evenodd" fill="#FFFFFF" d="M2002.579,1657.259c57.208,22.895,114.327,45.756,171.447,68.615
	c0.041,0.436,0.082,0.871,0.123,1.307c-62.611,26.09-125.222,52.18-188.381,78.498c-1.271-3.193-2.314-5.74-3.3-8.307
	c-22.432-58.424-44.896-116.838-67.238-175.297c-2.923-7.646-7.2-13.775-15.032-16.906c-6.745-2.699-13.195-1.438-19.854,0.814
	c-24.801,8.391-49.692,16.512-74.563,24.693c-2.411,0.793-4.917,1.301-8.085,2.125c-3.163-10.979-6.175-21.43-9.361-32.488
	c102.713-36.168,204.835-72.127,306.67-107.986c0.599,0.467,0.807,0.557,0.892,0.713c0.088,0.164,0.089,0.395,0.066,0.588
	c-0.022,0.188-0.11,0.373-0.194,0.549c-0.174,0.359-0.354,0.717-0.55,1.066c-0.293,0.523-0.603,1.037-0.902,1.557
	c-30.252,52.273-60.504,104.545-90.755,156.818c-0.2,0.346-0.39,0.697-0.572,1.053c-0.092,0.178-0.163,0.365-0.23,0.553
	c-0.068,0.188-0.144,0.377-0.174,0.572C2002.556,1655.992,2002.579,1656.195,2002.579,1657.259z"/>
<path fill-rule="evenodd" clip-rule="evenodd" fill="#FFFFFF" d="M400.357,1656.882c-31.9-55.111-63.225-109.227-94.437-163.146
	c0.393-0.574,0.471-0.756,0.606-0.867c0.143-0.119,0.38-0.285,0.509-0.238c100.912,35.412,201.818,70.842,302.718,106.287
	c1.103,0.387,2.123,1.004,3.815,1.818c-3.054,10.594-6.068,21.045-9.219,31.973c-2.683-0.641-4.793-1.057-6.853-1.65
	c-27.487-7.902-54.671-16.713-81.351-27.057c-3.146-1.219-6.433-2.414-9.749-2.787c-11.048-1.244-20.547,4.721-24.988,15.643
	c-5.421,13.334-10.594,26.77-15.88,40.16c-18.205,46.119-36.412,92.238-54.625,138.355c-0.796,2.016-1.661,4.006-2.451,5.904
	c-4.708-0.549-174.314-70.896-180.928-75.125c29.088-11.918,57.787-23.182,86.389-34.68
	C342.452,1680.001,371.023,1668.617,400.357,1656.882z"/>
<path fill-rule="evenodd" clip-rule="evenodd" fill="#FFFFFF" d="M1268.266,822.71c0,32.773,0,65.654,0,98.87
	c-45.002,0-89.276,0-134.292,0c0-33.122,0-65.992,0-98.971c-3.902-1.095-7.178-1.919-10.395-2.93
	c-35.58-11.188-48.475-58.761-20.093-86.852c9.261-9.166,21.02-12.852,33.728-13.626c4.76-0.29,9.628-0.135,14.34,0.551
	c3.587,0.521,5.448-0.573,7.258-3.517c7.564-12.307,18.273-20.67,32.492-23.718c20.796-4.458,38.268,1.576,52.164,17.741
	c0.91,1.058,1.803,2.163,2.507,3.361c2.544,4.327,6.124,5.896,11.124,4.97c6.191-1.146,12.357-0.405,18.4,1.231
	c21.394,5.794,37.395,25.233,38.626,46.876c1.297,22.793-11.997,43.63-33.251,51.914
	C1276.987,820.127,1272.931,821.208,1268.266,822.71z"/>
<path fill-rule="evenodd" clip-rule="evenodd" fill="#FFFFFF" d="M1594.524,850.482c4.475,4.306,8.445,8.127,12.763,12.282
	c-2.073,2.15-3.82,4.021-5.629,5.829c-43.13,43.14-86.253,86.288-129.434,129.378c-3.044,3.037-5.611,6.247-6.693,10.447
	c-1.159,4.499,0.516,6.413,5.233,6.024c3.965-0.328,7.042-2.215,9.897-5.012c25.001-24.495,50.103-48.887,75.169-73.314
	c19.91-19.402,39.812-38.813,59.726-58.211c0.99-0.964,2.062-1.844,3.612-3.224c3.021,2.915,5.955,5.746,9.089,8.77
	c-0.87,1.258-1.43,2.278-2.185,3.125c-40.422,45.429-81.322,90.413-124.855,132.914c-8.581,8.378-17.593,16.318-26.457,24.403
	c-10.423,9.508-22.105,17.143-34.882,23.103c-12.684,5.917-25.242,12.137-38.124,17.591c-22.2,9.399-41.509,23.028-59.568,38.761
	c-30.948,26.962-59.852,56.032-88.579,85.292c-2.485,2.531-4.979,5.055-7.899,8.02c-9.096-8.65-17.738-16.869-26.886-25.57
	c1.797-1.78,3.253-3.309,4.798-4.742c26.846-24.906,53.06-50.441,76.852-78.334c14.56-17.067,28.682-34.553,38.038-55.139
	c7.44-16.372,13.966-33.161,20.902-49.762c1.233-2.952,2.531-5.877,3.74-8.838c6.368-15.602,15.548-29.214,28.048-40.626
	c34.117-31.146,68.024-62.521,102.239-93.558c17.922-16.257,36.313-31.999,54.504-47.958c1.466-1.285,3.039-2.448,4.693-3.772
	c3.491,3.489,6.671,6.667,10.15,10.145c-1.661,1.764-3.1,3.375-4.624,4.9c-42.985,43.002-85.986,85.989-128.955,129.008
	c-2.68,2.683-5.231,5.513-7.63,8.448c-1.244,1.521-2.32,3.322-2.949,5.174c-1.341,3.954,1.646,7.191,5.494,5.594
	c3.214-1.334,6.245-3.582,8.768-6.032c8.894-8.635,17.469-17.596,26.279-26.316c36.107-35.736,72.255-71.43,108.398-107.13
	c1.399-1.382,2.894-2.666,4.612-4.243c2.9,2.995,5.596,5.776,8.592,8.87c-1.345,1.483-2.611,2.972-3.973,4.366
	c-42.746,43.799-85.526,87.564-128.203,131.431c-2.883,2.963-5.437,6.441-7.374,10.088c-3.256,6.132-1.198,9.209,5.585,9.013
	c5.986-0.173,10.912-2.161,15.356-6.712c42.618-43.645,85.443-87.086,128.218-130.578
	C1591.632,853.116,1592.976,851.938,1594.524,850.482z"/>
<path fill-rule="evenodd" clip-rule="evenodd" fill="#FFFFFF" d="M1166.751,1236.787c10.114,10.748,19.666,20.896,29.381,31.219
	c-1.226,1.508-2.015,2.631-2.955,3.611c-44.744,46.623-86.637,95.83-130.088,143.621c-32.42,35.66-65.13,71.059-97.854,106.439
	c-5.69,6.152-11.885,11.887-18.216,17.389c-7.654,6.654-16.577,11.133-26.527,13.357c-20.299,4.537-37.541-6.984-40.91-27.521
	c-2.424-14.771,0.659-28.637,10.267-40.01c10.17-12.041,21.185-23.445,32.535-34.398c44.203-42.648,90.566-82.914,137.14-122.924
	c33.677-28.928,67.709-57.443,101.587-86.141C1162.765,1240.031,1164.456,1238.675,1166.751,1236.787z"/>
<path fill-rule="evenodd" clip-rule="evenodd" fill="#FFFFFF" d="M1692.478,1191.375c-1.856,2.044-3.072,3.521-4.427,4.855
	c-9.399,9.256-18.761,18.551-28.287,27.674c-2.702,2.588-3.756,5.066-3.013,8.951c2.585,13.537,4.753,27.154,7.054,40.746
	c0.227,1.334,0.271,2.697,0.468,4.76c-1.954-0.775-3.408-1.213-4.732-1.902c-12.051-6.279-24.166-12.443-36.059-19.012
	c-3.648-2.016-6.443-1.824-9.955,0.094c-11.398,6.223-22.955,12.158-34.46,18.188c-1.705,0.893-3.464,1.688-6.133,2.982
	c0.342-3.021,0.473-4.967,0.793-6.879c2.112-12.611,4.125-25.242,6.483-37.809c0.824-4.393-0.09-7.463-3.448-10.586
	c-9.511-8.844-18.672-18.064-27.952-27.156c-1.353-1.324-2.6-2.758-4.672-4.971c6.779-1.072,12.42-2.019,18.076-2.846
	c9.291-1.357,18.577-2.768,27.898-3.886c3.797-0.456,6.005-2.124,7.654-5.606c5.646-11.916,11.596-23.689,17.454-35.505
	c0.863-1.742,1.859-3.418,3.18-5.828c1.247,2.195,2.178,3.671,2.953,5.226c5.887,11.801,11.944,23.524,17.499,35.481
	c1.963,4.225,4.703,5.785,9.081,6.345c13.475,1.722,26.903,3.802,40.347,5.763
	C1689.389,1190.616,1690.475,1190.93,1692.478,1191.375z"/>
<path fill-rule="evenodd" clip-rule="evenodd" fill="#FFFFFF" d="M857.955,1191.315c-2.393,2.491-3.853,4.085-5.391,5.602
	c-8.822,8.695-17.52,17.527-26.567,25.982c-3.618,3.381-4.764,6.719-3.792,11.6c2.455,12.338,4.427,24.771,6.552,37.172
	c0.331,1.928,0.445,3.893,0.764,6.793c-2.252-0.965-3.838-1.523-5.314-2.293c-11.864-6.193-23.791-12.279-35.51-18.738
	c-3.627-2-6.438-1.822-9.956,0.107c-11.21,6.145-22.587,11.984-33.91,17.922c-1.908,1.002-3.866,1.908-6.465,3.184
	c0.125-2.119,0.086-3.436,0.295-4.713c2.199-13.402,4.199-26.844,6.798-40.17c0.896-4.59-0.347-7.408-3.58-10.436
	c-9.332-8.738-18.386-17.773-27.531-26.712c-1.398-1.366-2.698-2.835-4.558-4.799c1.885-0.572,3.079-1.102,4.325-1.287
	c13.433-2.001,26.852-4.128,40.326-5.808c4.512-0.563,7.06-2.435,8.972-6.53c5.408-11.581,11.216-22.974,16.886-34.431
	c0.875-1.766,1.854-3.48,3.113-5.832c1.06,1.484,1.952,2.441,2.512,3.563c6.151,12.333,12.388,24.629,18.284,37.084
	c1.852,3.914,4.399,5.543,8.62,6.078c13.471,1.704,26.894,3.798,40.333,5.753C854.299,1190.575,855.424,1190.833,857.955,1191.315z"
	/>
<path fill-rule="evenodd" clip-rule="evenodd" fill="#FFFFFF" d="M704.201,1612.144c-4.905-0.133-9.02-2.084-12.083-5.775
	c-10.955-13.209-21.978-26.369-32.585-39.854c-5.981-7.605-4.464-17.826,2.708-23.561c7.31-5.844,17.557-4.561,23.953,3.166
	c10.435,12.605,20.772,25.289,31.143,37.945c4.762,5.811,5.834,12.25,2.465,18.98
	C716.657,1609.332,711.203,1612.216,704.201,1612.144z"/>
<path fill-rule="evenodd" clip-rule="evenodd" fill="#FFFFFF" d="M1746.589,1557.167c-1.537,3.387-2.473,7.25-4.712,10.082
	c-10.27,13.002-20.723,25.869-31.475,38.475c-6.401,7.504-16.493,8.143-23.595,2.227c-7.268-6.055-8.181-16.316-1.881-24.115
	c10.163-12.58,20.441-25.066,30.76-37.518c5.086-6.139,12.501-8.076,19.382-5.348
	C1741.576,1543.552,1745.946,1549.988,1746.589,1557.167z"/>
<path fill-rule="evenodd" clip-rule="evenodd" fill="#FFFFFF" d="M479.699,962.424c1.367-5.556,2.788-12.613,4.852-19.478
	c5.974-19.859,12.192-39.646,18.362-59.446c0.53-1.701,1.229-3.405,2.164-4.911c2.508-4.035,7.18-5.502,11.471-3.794
	c4.303,1.712,6.764,5.963,5.931,10.57c-0.317,1.75-0.987,3.448-1.594,5.134c-8.655,24.052-15.902,48.521-21.703,73.417
	c-0.316,1.358-0.602,2.74-1.095,4.038c-1.807,4.753-6.218,7.365-10.814,6.497C482.339,973.519,479.283,969.311,479.699,962.424z"/>
<path fill-rule="evenodd" clip-rule="evenodd" fill="#FFFFFF" d="M1461.106,452.535c1.019,0.299,2.966,0.734,4.813,1.433
	c23.912,9.049,47.324,19.245,70.178,30.715c0.534,0.269,1.082,0.516,1.6,0.815c5.313,3.067,7.233,8.232,4.886,13.113
	c-2.319,4.82-7.742,6.597-13.278,4.184c-3.291-1.434-6.416-3.247-9.708-4.678c-19.579-8.505-39.186-16.947-58.78-25.415
	c-2.013-0.87-4.143-1.557-5.988-2.701c-3.718-2.302-5.174-6.863-3.813-11.033C1452.285,455.073,1455.949,452.49,1461.106,452.535z"
	/>
<path fill-rule="evenodd" clip-rule="evenodd" fill="#FFFFFF" d="M1829.24,747.646c-0.167,5.215-1.866,8.177-5.437,9.925
	c-3.59,1.759-7.061,1.322-10.065-1.192c-1.495-1.25-2.68-2.945-3.776-4.59c-13.398-20.103-27.699-39.536-43.016-58.22
	c-1.009-1.23-2.046-2.481-2.798-3.87c-2.37-4.372-1.239-9.438,2.614-12.309c3.549-2.644,8.638-2.402,12.143,0.649
	c0.896,0.779,1.664,1.72,2.422,2.642c16.114,19.581,31.178,39.94,45.102,61.134C1827.809,743.916,1828.64,746.377,1829.24,747.646z"
	/>
<path fill-rule="evenodd" clip-rule="evenodd" fill="#FFFFFF" d="M1581.168,510.207c1.05,0.42,3.271,0.905,5.036,2.077
	c20.315,13.482,40.586,27.034,60.786,40.689c1.733,1.172,3.239,3.03,4.217,4.9c1.866,3.569,0.984,7.083-1.61,9.995
	c-2.594,2.913-5.944,4.05-9.764,2.806c-1.491-0.486-2.903-1.333-4.22-2.211c-19.95-13.312-39.882-26.651-59.8-40.009
	c-1.15-0.771-2.34-1.61-3.192-2.673c-2.479-3.087-2.751-6.585-1.198-10.154C1572.886,512.26,1576.372,510.166,1581.168,510.207z"/>
<path fill-rule="evenodd" clip-rule="evenodd" fill="#FFFFFF" d="M596.815,736.02c-7.042-0.188-11.457-6.42-9.19-12.584
	c0.741-2.015,2-3.912,3.328-5.626c13.805-17.803,27.665-35.563,41.537-53.313c1.102-1.41,2.301-2.78,3.637-3.963
	c3.812-3.377,8.848-3.521,12.568-0.491c3.848,3.134,4.612,8.489,1.804,12.935c-0.53,0.838-1.181,1.607-1.834,2.358
	c-15.326,17.626-29.638,36.043-43.049,55.163C603.328,733.759,600.656,736.246,596.815,736.02z"/>
<path fill-rule="evenodd" clip-rule="evenodd" fill="#FFFFFF" d="M1923.7,962.598c0.115,5.444-2.707,9.225-7.255,10.399
	c-4.356,1.125-8.915-1.011-10.879-5.347c-0.898-1.984-1.35-4.172-1.996-6.271c-6.116-19.844-12.245-39.686-18.323-59.542
	c-0.637-2.08-1.307-4.241-1.374-6.383c-0.135-4.308,2.501-7.617,6.613-8.946c3.902-1.26,8.202,0.115,10.545,3.624
	c0.981,1.47,1.698,3.183,2.225,4.882c6.605,21.368,13.16,42.75,19.702,64.137C1923.363,960.477,1923.547,961.872,1923.7,962.598z"/>
<path fill-rule="evenodd" clip-rule="evenodd" fill="#FFFFFF" d="M458.323,1074.808c1.444-10.345,3.045-22.833,4.971-35.271
	c1.466-9.474,3.33-18.888,5.052-28.322c0.323-1.765,0.629-3.57,1.266-5.234c1.771-4.623,6.444-7.054,11.125-5.966
	c4.403,1.024,7.541,4.979,7.349,9.69c-0.097,2.375-0.739,4.727-1.108,7.092c-3.114,19.934-6.223,39.87-9.326,59.805
	c-0.123,0.79-0.126,1.598-0.267,2.383c-1.067,5.963-5.361,9.367-10.914,8.674C461.202,1087,458.107,1082.966,458.323,1074.808z"/>
<path fill-rule="evenodd" clip-rule="evenodd" fill="#FFFFFF" d="M1943.914,1077.11c0.077,5.983-3.303,10.104-8.558,10.612
	c-5.631,0.545-9.768-2.817-10.597-8.979c-1.627-12.085-2.961-24.209-4.657-36.283c-1.252-8.905-2.909-17.752-4.334-26.634
	c-0.347-2.164-0.736-4.367-0.68-6.541c0.117-4.542,3.133-7.942,7.51-8.875c4.17-0.889,8.561,1.237,10.459,5.213
	c0.594,1.244,1.008,2.633,1.207,3.999c3.202,21.953,6.358,43.913,9.518,65.872C1943.867,1076.088,1943.881,1076.69,1943.914,1077.11
	z"/>
<path fill-rule="evenodd" clip-rule="evenodd" fill="#FFFFFF" d="M488.669,1307.63c-0.003,5.709-3.235,9.627-7.992,10.301
	c-4.958,0.701-9.167-1.703-10.573-6.727c-1.449-5.182-2.515-10.496-3.37-15.813c-2.728-16.957-5.284-33.941-7.887-50.92
	c-0.181-1.18-0.326-2.393-0.257-3.578c0.284-4.914,3.932-8.787,8.627-9.27c4.632-0.477,9.117,2.594,10.175,7.443
	c0.848,3.893,1.042,7.92,1.703,11.859c2.907,17.332,5.879,34.652,8.823,51.979C488.22,1304.677,488.484,1306.455,488.669,1307.63z"
	/>
<path fill-rule="evenodd" clip-rule="evenodd" fill="#FFFFFF" d="M1944.581,1229.074c-2.789,19.139-5.563,38.279-8.382,57.414
	c-0.435,2.957-0.927,5.92-1.636,8.822c-1.364,5.578-5.859,8.764-10.916,7.934c-5.381-0.885-8.759-5.574-7.885-11.498
	c1.366-9.273,3.144-18.486,4.446-27.766c1.661-11.852,3.022-23.742,4.519-35.615c0.174-1.383,0.225-2.807,0.604-4.133
	c1.377-4.813,5.668-7.676,10.421-7.084c4.694,0.584,8.093,4.43,8.331,9.449c0.038,0.797,0.005,1.596,0.005,2.393
	C1944.252,1229.017,1944.417,1229.046,1944.581,1229.074z"/>
<path fill-rule="evenodd" clip-rule="evenodd" fill="#FFFFFF" d="M1688.625,588.222c1.396,0.71,4.067,1.411,5.835,3.073
	c16.158,15.197,32.26,30.457,48.141,45.941c4.4,4.29,3.998,10.192-0.031,13.902c-3.976,3.661-9.532,3.399-13.979-0.885
	c-4.029-3.882-7.764-8.072-11.824-11.92c-10.88-10.313-21.871-20.507-32.802-30.768c-1.452-1.362-3.021-2.677-4.157-4.282
	c-2.14-3.023-2.21-6.379-0.558-9.665C1680.923,590.293,1683.841,588.758,1688.625,588.222z"/>
<path fill-rule="evenodd" clip-rule="evenodd" fill="#FFFFFF" d="M1896.085,1413.605c-6.101,0.186-10.675-4.627-10.09-10.447
	c0.195-1.953,0.938-3.863,1.518-5.766c5.687-18.707,11.392-37.408,17.091-56.109c0.465-1.527,0.785-3.117,1.417-4.572
	c2.076-4.783,7.047-7.051,11.854-5.523c4.468,1.42,7.39,5.982,6.386,10.854c-1.087,5.268-2.51,10.486-4.097,15.631
	c-4.881,15.824-9.924,31.598-14.873,47.402C1903.792,1409.863,1901.031,1413.156,1896.085,1413.605z"/>
<path fill-rule="evenodd" clip-rule="evenodd" fill="#FFFFFF" d="M739.197,583.069c-0.039,3.507-1.971,5.93-4.488,8.082
	c-6.824,5.831-13.736,11.567-20.38,17.598c-8.269,7.507-16.303,15.272-24.44,22.923c-1.016,0.956-1.971,2-3.086,2.823
	c-4.193,3.097-9.733,2.696-13.064-0.865c-3.402-3.637-3.422-8.911,0.002-13.081c0.756-0.921,1.627-1.759,2.512-2.563
	c14.762-13.407,29.527-26.812,44.318-40.187c1.326-1.199,2.742-2.36,4.286-3.242c3.181-1.817,6.518-1.82,9.684,0.038
	C737.721,576.462,739.235,579.37,739.197,583.069z"/>
<path fill-rule="evenodd" clip-rule="evenodd" fill="#FFFFFF" d="M563.179,767.087c7.243,0.042,11.816,6.314,9.831,12.506
	c-0.481,1.5-1.366,2.876-2.108,4.288c-9.099,17.301-18.204,34.599-27.309,51.897c-0.65,1.235-1.189,2.546-1.975,3.688
	c-2.729,3.974-7.297,5.382-11.56,3.667c-4.286-1.724-6.605-5.886-5.74-10.661c0.279-1.542,0.872-3.084,1.603-4.48
	c9.436-18.025,18.925-36.022,28.396-54.029C556.384,770.034,559.174,767.14,563.179,767.087z"/>
<path fill-rule="evenodd" clip-rule="evenodd" fill="#FFFFFF" d="M473.868,1164.413c0,9.169-0.002,18.339,0.002,27.508
	c0,1.396,0.127,2.797,0.031,4.186c-0.37,5.369-4.035,9.041-9.12,9.223c-5.169,0.188-9.269-3.029-9.849-8.443
	c-0.593-5.539-0.75-11.145-0.767-16.723c-0.047-15.552,0.077-31.103,0.137-46.655c0.002-0.598,0.017-1.198,0.066-1.793
	c0.521-6.2,4.278-9.997,9.765-9.876c5.438,0.12,9.371,4.124,9.398,10.275c0.041,9.17-0.311,18.342-0.484,27.513
	c-0.031,1.594-0.004,3.191-0.004,4.787C473.318,1164.413,473.593,1164.413,473.868,1164.413z"/>
<path fill-rule="evenodd" clip-rule="evenodd" fill="#FFFFFF" d="M1116.131,408.93c5.639,0.071,9.701,3.494,10.315,8.436
	c0.6,4.818-2.555,9.2-7.857,10.415c-3.295,0.754-6.709,0.966-10.053,1.523c-16.133,2.687-32.261,5.408-48.39,8.124
	c-0.787,0.132-1.555,0.388-2.345,0.483c-5.596,0.68-10.213-2.387-11.292-7.47c-1.073-5.068,1.886-10.014,7.348-11.284
	c7.184-1.67,14.452-3.022,21.73-4.231c11.61-1.928,23.257-3.641,34.894-5.408C1112.452,409.218,1114.45,409.1,1116.131,408.93z"/>
<path fill-rule="evenodd" clip-rule="evenodd" fill="#FFFFFF" d="M1853.054,1506.845c-5.37,0.137-10.103-5.9-8.282-12.23
	c0.545-1.896,1.609-3.646,2.476-5.445c7.539-15.658,15.084-31.314,22.64-46.965c0.866-1.797,1.607-3.697,2.754-5.303
	c2.715-3.803,7.626-4.947,11.761-2.973c4.127,1.969,6.299,6.512,5.177,10.996c-0.288,1.154-0.755,2.283-1.272,3.359
	c-8.314,17.281-16.646,34.553-24.982,51.824C1861.467,1503.955,1858.739,1506.638,1853.054,1506.845z"/>
<path fill-rule="evenodd" clip-rule="evenodd" fill="#FFFFFF" d="M1883.615,847.051c-0.056,4.806-2.65,8.544-6.147,9.828
	c-3.829,1.406-8.358,0.299-10.836-2.932c-1.198-1.562-2.006-3.437-2.899-5.215c-7.894-15.699-15.768-31.407-23.643-47.114
	c-0.716-1.427-1.529-2.824-2.068-4.318c-1.674-4.637,0.207-9.612,4.355-11.808c4.178-2.211,9.348-1.052,12.317,2.855
	c0.839,1.104,1.5,2.361,2.127,3.606c8.248,16.415,16.504,32.825,24.675,49.277C1882.545,843.344,1883.128,845.689,1883.615,847.051z
	"/>
<path fill-rule="evenodd" clip-rule="evenodd" fill="#FFFFFF" d="M923.95,474.173c-0.121,3.657-2.575,6.507-6.538,8.284
	c-5.638,2.529-11.339,4.928-16.894,7.628c-11.114,5.403-22.147,10.973-33.212,16.478c-6.714,3.339-12.307,2.257-15-2.952
	c-2.688-5.2-0.466-11.132,5.917-14.139c16.947-7.983,33.772-16.225,50.657-24.342c1.072-0.515,2.207-0.964,3.362-1.231
	C918.316,462.491,924.016,467.099,923.95,474.173z"/>
<path fill-rule="evenodd" clip-rule="evenodd" fill="#FFFFFF" d="M962.88,464.141c-4.945-0.092-8.651-2.865-9.84-6.747
	c-1.2-3.917,0.199-8.296,3.633-10.595c1.469-0.983,3.175-1.714,4.873-2.242c16.78-5.217,33.575-10.385,50.384-15.511
	c1.705-0.52,3.516-0.891,5.29-0.944c4.63-0.137,8.55,3.04,9.572,7.508c0.932,4.077-1.185,8.508-5.169,10.483
	c-1.417,0.702-2.998,1.088-4.523,1.556c-16.226,4.984-32.453,9.961-48.685,14.924C966.323,463.214,964.207,463.767,962.88,464.141z"
	/>
<path fill-rule="evenodd" clip-rule="evenodd" fill="#FFFFFF" d="M824.229,524.662c-0.036,3.903-2.669,6.62-6.292,8.826
	c-10.392,6.33-20.748,12.721-31.065,19.172c-4.396,2.75-8.653,5.723-12.993,8.563c-1.332,0.873-2.658,1.816-4.113,2.43
	c-4.345,1.832-9.189,0.439-11.73-3.222c-2.721-3.92-2.168-9.083,1.417-12.532c0.854-0.822,1.856-1.514,2.864-2.151
	c15.168-9.602,30.332-19.212,45.552-28.731c1.65-1.032,3.585-1.884,5.488-2.183C819.134,513.928,824.095,518.265,824.229,524.662z"
	/>
<path fill-rule="evenodd" clip-rule="evenodd" fill="#FFFFFF" d="M1927.961,1152.227c0-7.995-0.013-15.99,0.01-23.985
	c0.005-1.793-0.074-3.624,0.245-5.372c0.806-4.403,4.409-7.478,8.734-7.709c4.241-0.227,8.346,2.535,9.544,6.726
	c0.541,1.893,0.741,3.94,0.751,5.919c0.082,16.791,0.095,33.583,0.092,50.375c0,1.389-0.129,2.811-0.445,4.16
	c-1.167,4.972-5.2,8.013-10.002,7.664c-4.858-0.354-8.381-3.841-8.752-8.995c-0.2-2.78,0.057-5.592,0.063-8.39
	c0.015-6.797,0.005-13.594,0.005-20.391C1928.124,1152.227,1928.043,1152.227,1927.961,1152.227z"/>
<path fill-rule="evenodd" clip-rule="evenodd" fill="#FFFFFF" d="M1190.193,423.789c-7.386,0-14.771-0.002-22.158,0
	c-1.996,0-4.013,0.191-5.986-0.019c-4.646-0.494-8.091-4.116-8.489-8.676c-0.371-4.241,2.227-8.306,6.452-9.736
	c1.48-0.5,3.124-0.674,4.698-0.712c16.374-0.387,32.748-0.742,49.123-1.026c1.969-0.034,4.029,0.129,5.903,0.684
	c4.616,1.369,7.134,5.367,6.677,10.086c-0.449,4.642-3.782,7.954-8.656,8.385c-2.182,0.192-4.392,0.074-6.589,0.077
	c-6.991,0.006-13.983,0.001-20.976,0.001C1190.193,423.166,1190.193,423.478,1190.193,423.789z"/>
<path fill-rule="evenodd" clip-rule="evenodd" fill="#FFFFFF" d="M491.008,1346.65c4.358-0.047,7.699,2.303,9.33,6.99
	c1.506,4.326,2.604,8.793,4.044,13.143c3.258,9.836,6.644,19.633,9.913,29.465c0.687,2.066,1.411,4.199,1.571,6.342
	c0.333,4.473-2.416,8.127-6.694,9.473c-3.918,1.23-8.128-0.174-10.531-3.664c-0.78-1.133-1.388-2.438-1.821-3.746
	c-4.819-14.568-9.599-29.148-14.353-43.738c-0.43-1.318-0.771-2.709-0.86-4.086C481.248,1351.265,485.509,1346.708,491.008,1346.65z
	"/>
<path fill-rule="evenodd" clip-rule="evenodd" fill="#FFFFFF" d="M1265.933,405.969c15.431,2.002,30.878,3.88,46.281,6.069
	c6.048,0.859,9.483,5.46,8.844,10.814c-0.638,5.329-5.075,8.829-11.264,8.151c-11.104-1.216-22.161-2.84-33.244-4.245
	c-4.748-0.603-9.568-0.789-14.252-1.701c-5.073-0.988-7.775-5.094-7.334-10.101c0.434-4.908,3.941-8.221,9.124-8.598
	c0.595-0.043,1.195-0.006,1.795-0.006C1265.898,406.225,1265.916,406.097,1265.933,405.969z"/>
<path fill-rule="evenodd" clip-rule="evenodd" fill="#FFFFFF" d="M1374.398,424.975c0.706,0.143,2.099,0.319,3.427,0.71
	c14.152,4.175,28.308,8.344,42.426,12.632c1.859,0.565,3.726,1.534,5.227,2.759c3.054,2.492,3.917,6.654,2.529,10.353
	c-1.386,3.696-4.699,6.06-8.754,6.062c-1.375,0.001-2.798-0.207-4.117-0.596c-14.537-4.285-29.071-8.581-43.575-12.977
	c-4.868-1.475-7.274-4.573-7.452-8.986C1363.882,429.317,1368.071,424.975,1374.398,424.975z"/>
<path fill-rule="evenodd" clip-rule="evenodd" fill="#FFFFFF" d="M557.937,1496.824c-0.389,4.895-2.167,7.814-5.777,9.471
	c-3.642,1.668-7.697,1.045-10.483-1.887c-1.345-1.416-2.396-3.191-3.276-4.957c-5.527-11.07-10.977-22.178-16.423-33.287
	c-0.7-1.432-1.372-2.902-1.813-4.428c-1.302-4.51,0.661-9.105,4.655-11.195c4.167-2.18,9.45-0.943,12.268,2.979
	c0.807,1.121,1.36,2.434,1.978,3.684c5.565,11.275,11.149,22.539,16.648,33.846C556.742,1493.162,557.415,1495.445,557.937,1496.824
	z"/>
<path fill-rule="evenodd" clip-rule="evenodd" fill="none" d="M1633.47,1899.785c-7.436,1.043-13.893,1.947-20.926,2.936
	c-1.154-7.568-2.383-14.414-3.198-21.309c-0.762-6.428-2.539-12.387-5.451-18.217c-8.307-16.629-16.247-33.441-24.35-50.172
	c-0.848-1.75-1.817-3.441-3.808-4.844c4.699,32.256,9.396,64.514,14.189,97.414c-6.633,2.07-13.325,2.387-20.781,3.482
	c-4.294-26.275-7.77-52.314-11.62-78.293c-3.834-25.861-7.566-51.738-11.468-78.457c6.614-0.961,12.663-1.854,18.717-2.713
	c2.283-0.324,3.101,1.291,3.885,2.996c2.591,5.629,5.231,11.234,7.833,16.859c6.712,14.514,13.408,29.035,20.132,43.545
	c0.565,1.221,1.28,2.375,2.474,3.436c-2.309-23.436-6.517-46.588-9.351-70.502c7.03-1.047,13.46-2.004,20.756-3.092
	C1618.293,1795.171,1625.808,1847.056,1633.47,1899.785z"/>
<path fill-rule="evenodd" clip-rule="evenodd" fill="none" d="M1141.057,1777.466c7.501,0,14.034,0,21.243,0
	c6.883,23.91,13.744,47.74,20.604,71.57c0.44-0.064,0.88-0.131,1.32-0.195c0.244-23.58,0.487-47.162,0.733-70.91
	c7.391,0,13.883,0,21.065,0c0.125,52.666-1.033,104.92-1.324,157.73c-7.125,0.967-13.773,0.393-21.237,0.174
	c0-2.918-0.171-5.459,0.029-7.969c1.238-15.564-0.996-30.521-6.27-45.281c-4.769-13.346-8.387-27.102-12.536-40.668
	c-0.509-1.666-1.161-3.287-1.747-4.928c-0.41,0.039-0.82,0.078-1.23,0.117c-0.123,16.201-0.207,32.404-0.379,48.607
	c-0.174,16.369-0.434,32.736-0.665,49.744c-7.027,0.709-13.654,0.391-21.141,0.016
	C1140.036,1882.673,1140.543,1830.398,1141.057,1777.466z"/>
<path fill-rule="evenodd" clip-rule="evenodd" fill="none" d="M1117.538,1934.324c-6.957,0-13.455,0-20.802,0
	c-0.203-10.043,0.595-19.523,0.972-29.012c0.378-9.516,0.652-19.035,0.996-29.24c-8.143,0-15.629,0-24.011,0
	c-0.402,9.32-0.808,18.828-1.223,28.336c-0.409,9.338-0.827,18.674-1.256,28.342c-3.886,0-7.214,0.061-10.539-0.02
	c-3.188-0.076-6.374-0.303-10.296-0.5c-0.061-2.041-0.234-3.949-0.157-5.848c1.394-33.746,2.822-67.49,4.231-101.236
	c0.317-7.588,0.429-15.189,0.957-22.762c0.289-4.156,0.827-8.391,1.993-12.373c2.645-9.033,9.096-14.328,18.35-14.688
	c9.343-0.361,18.816-0.027,28.087,1.152c11.031,1.404,17.332,9.348,18.158,21.309c0.275,3.975,0.121,7.994-0.041,11.984
	c-1.597,39.338-3.232,78.674-4.877,118.01C1117.99,1929.941,1117.728,1932.093,1117.538,1934.324z M1099.342,1856.869
	c0.26-2.65,0.541-4.588,0.626-6.535c0.516-11.758,1.006-23.516,1.462-35.275c0.154-3.986,0.36-7.98,0.224-11.963
	c-0.17-5.014-2.152-7.313-7.024-8.186c-2.53-0.453-5.163-0.531-7.743-0.475c-5.969,0.133-8.585,2.672-9.234,8.715
	c-0.127,1.188-0.118,2.389-0.169,3.586c-0.592,14.148-1.194,28.297-1.766,42.447c-0.079,1.961-0.011,3.926-0.011,6.717
	C1083.672,1856.226,1091.321,1856.541,1099.342,1856.869z"/>
<path fill-rule="evenodd" clip-rule="evenodd" fill="none" d="M1353.536,1931.078c-4.044-52.889-8.043-105.178-12.074-157.896
	c3.674-0.332,6.616-0.625,9.564-0.859c8.567-0.682,17.133-1.393,25.707-1.977c2.984-0.205,6.003-0.254,8.986-0.07
	c11.844,0.727,19.749,7.117,22.93,18.572c0.742,2.678,1.241,5.471,1.461,8.242c2.401,30.285,4.727,60.576,7.064,90.865
	c0.416,5.381,0.989,10.758,1.157,16.146c0.438,14.01-6.071,21.771-20.086,23.41c-10.117,1.186-20.312,1.709-30.473,2.51
	C1363.248,1930.378,1358.72,1930.695,1353.536,1931.078z M1373.28,1910.277c6.329-0.531,11.892-0.732,17.365-1.539
	c4.599-0.678,6.082-2.783,6.125-7.371c0.021-2.191-0.159-4.389-0.325-6.578c-1.928-25.277-3.847-50.555-5.822-75.828
	c-0.56-7.16-1.148-14.324-2.004-21.453c-0.489-4.072-2.636-7.322-7.057-7.787c-5.731-0.6-11.371,0.43-17.401,1.205
	C1367.213,1830.873,1370.205,1870.029,1373.28,1910.277z"/>
<path fill-rule="evenodd" clip-rule="evenodd" fill="none" d="M834.23,1777.464c-1.221,8.582-2.802,19.859-4.433,31.131
	c-3.435,23.734-6.867,47.469-10.375,71.193c-0.554,3.746-1.194,7.527-2.315,11.131c-3.478,11.18-11.266,16.898-22.995,15.969
	c-9.536-0.758-19.094-2.131-28.44-4.166c-12.419-2.703-18.411-11.197-17.668-24.094c0.344-5.969,1.369-11.908,2.226-17.84
	c4.287-29.67,8.569-59.34,12.993-88.99c0.614-4.117,1.615-8.27,3.122-12.141c3.403-8.746,10.168-13.484,19.483-13.172
	c7.952,0.27,15.865,1.736,23.791,2.701c1.586,0.191,3.165,0.473,4.735,0.77C828.173,1752.572,834.662,1760.638,834.23,1777.464z
	 M787.803,1886.814c6.477,0.219,8.881-1.646,10.073-7.223c0.458-2.145,0.75-4.328,1.066-6.502c3.564-24.5,7.131-49,10.667-73.504
	c1.055-7.311,2.226-14.615,2.945-21.963c0.535-5.449-1.735-8.186-7.025-9.436c-1.937-0.459-3.94-0.637-5.911-0.957
	c-12.126-1.967-14.303-0.268-16.039,11.953c-3.005,21.15-6.135,42.285-9.199,63.428c-1.546,10.672-3.156,21.334-4.558,32.023
	c-0.836,6.381,1.411,9.434,7.639,10.652C781.179,1886.017,784.963,1886.404,787.803,1886.814z"/>
<path fill-rule="evenodd" clip-rule="evenodd" fill="none" d="M1228.069,1935.498c-1.441-52.334-2.881-104.557-4.332-157.24
	c1.928-0.303,3.412-0.689,4.909-0.742c10.379-0.367,20.761-0.67,31.142-0.98c1.197-0.035,2.398-0.039,3.595,0
	c17.079,0.545,26.7,9.652,27.671,26.711c0.67,11.762,0.864,23.551,1.188,35.33c0.633,22.961,1.228,45.922,1.787,68.883
	c0.078,3.188,0.1,6.406-0.262,9.564c-0.963,8.422-5.729,13.846-13.759,16.34c-2.271,0.705-4.672,1.264-7.033,1.354
	c-13.57,0.521-27.148,0.893-40.724,1.271C1231.097,1936.021,1229.934,1935.726,1228.069,1935.498z M1248.813,1915.828
	c5.571,0,9.95,0.135,14.318-0.029c8.122-0.311,9.883-2.199,9.662-10.162c-0.873-31.584-1.767-63.17-2.686-94.754
	c-0.075-2.592-0.164-5.225-0.663-7.756c-0.859-4.354-3.364-6.84-7.765-7.051c-5.114-0.246-10.26,0.176-16.159,0.328
	C1246.628,1836.56,1247.716,1876.027,1248.813,1915.828z"/>
<path fill-rule="evenodd" clip-rule="evenodd" fill="none" d="M940.901,1765.193c5.504,0.441,10.054,0.793,14.601,1.176
	c8.161,0.688,16.365,1.061,24.472,2.156c17.79,2.404,25.927,12.379,24.957,30.338c-0.484,8.975-1.321,17.932-2.084,26.887
	c-2.236,26.275-4.508,52.545-6.789,78.814c-0.171,1.984-0.366,3.988-0.813,5.922c-2.279,9.854-8.303,15.223-18.355,15.949
	c-4.36,0.314-8.787,0.076-13.16-0.238c-10.162-0.73-20.311-1.641-30.46-2.529c-1.735-0.152-3.448-0.568-5.679-0.947
	C932.026,1870.232,936.426,1818.16,940.901,1765.193z M950.397,1905.675c6.225,0.5,11.743,1.186,17.275,1.313
	c4.616,0.107,6.507-1.752,7.376-6.236c0.265-1.365,0.297-2.777,0.415-4.17c2.298-27.076,4.596-54.15,6.889-81.227
	c0.472-5.574,1.062-11.143,1.341-16.727c0.219-4.385-0.562-8.781-5.329-10.367c-5.653-1.879-11.62-1.691-17.914-1.838
	C957.077,1826.431,953.763,1865.744,950.397,1905.675z"/>
<path fill-rule="evenodd" clip-rule="evenodd" fill="none" d="M880.961,1918.164c-6.075-0.732-14.86-1.447-23.518-2.916
	c-13.004-2.203-19.612-10.557-19.242-24.078c0.164-5.977,1.023-11.941,1.706-17.895c3.503-30.574,7.052-61.145,10.587-91.715
	c0.092-0.795,0.173-1.592,0.306-2.381c2.546-15.053,11.019-21.998,26.219-20.965c8.166,0.553,16.33,1.492,24.418,2.756
	c13.042,2.035,20.133,10.262,19.833,23.631c-0.193,8.561-1.502,17.107-2.469,25.641c-3.081,27.205-6.228,54.4-9.375,81.598
	c-0.275,2.379-0.631,4.758-1.126,7.102C905.439,1912.468,897.438,1918.712,880.961,1918.164z M899.807,1788.906
	c0.122-5.541-1.871-8.393-7.213-9.461c-4.097-0.816-8.298-1.301-12.473-1.496c-4.549-0.211-7.079,1.836-8.324,6.197
	c-0.435,1.521-0.581,3.135-0.765,4.717c-2.272,19.439-4.547,38.879-6.781,58.324c-1.504,13.096-3.02,26.191-4.382,39.303
	c-0.703,6.758,1.626,9.697,8.244,10.768c3.348,0.543,6.732,0.918,10.115,1.182c6.104,0.475,8.733-1.656,9.802-7.863
	c0.44-2.557,0.719-5.145,1.016-7.723c2.259-19.643,4.505-39.287,6.754-58.932C897.139,1812.214,898.479,1800.507,899.807,1788.906z"
	/>
<path fill-rule="evenodd" clip-rule="evenodd" fill="none" d="M1424.834,1766.507c6.077-0.732,11.372-1.41,16.678-2.002
	c7.148-0.797,14.304-1.533,21.457-2.285c1.191-0.125,2.387-0.232,3.584-0.301c15.304-0.881,23.812,5.723,26.052,20.963
	c1.627,11.061,2.563,22.225,3.753,33.35c0.489,4.568,0.993,9.143,1.21,13.727c0.426,9.008-1.604,17.107-9.838,23.035
	c7.072,20.973,14.135,41.914,21.478,63.686c-6.866,0.805-13.108,1.535-19.919,2.334c-6.903-20.738-13.698-41.15-20.669-62.09
	c-4.078,0.426-7.935,0.828-12.558,1.313c2.208,21.229,4.365,41.975,6.6,63.461c-7.096,0.791-13.72,1.531-21.067,2.352
	C1436.001,1871.478,1430.473,1819.509,1424.834,1766.507z M1448.03,1783.25c2.052,19.238,4.027,37.762,6.049,56.707
	c4.801-0.475,8.754-0.795,12.688-1.273c6.871-0.836,9.323-3.715,9.283-10.752c-0.008-1.197-0.061-2.4-0.188-3.592
	c-1.151-10.73-2.301-21.461-3.517-32.186c-0.179-1.57-0.587-3.145-1.104-4.643c-1.238-3.592-3.805-5.74-7.638-5.58
	C1458.677,1782.136,1453.768,1782.744,1448.03,1783.25z"/>
<path fill-rule="evenodd" clip-rule="evenodd" fill="none" d="M704.179,1732.251c17.803,3.076,34.461,5.953,51.808,8.949
	c-1.119,6.445-2.124,12.24-3.26,18.785c-10.457-1.668-20.396-3.252-30.892-4.926c-2.735,15.83-5.373,31.102-8.121,47.006
	c9.028,1.65,17.59,3.217,26.762,4.893c0.046,6.35-1.492,12.203-2.98,18.805c-8.878-1.439-17.468-2.832-26.899-4.359
	c-4.684,23.281-7.87,46.545-12.502,70.104c-6.971,0.086-13.387-1.811-20.792-3.045
	C686.105,1836.296,695.092,1784.669,704.179,1732.251z"/>
<path fill-rule="evenodd" clip-rule="evenodd" fill="none" d="M1628.693,1739.982c7.214-1.244,13.633-2.35,20.866-3.596
	c9.182,52.111,17.792,103.83,26.804,156.215c-7.083,1.234-13.667,2.381-20.954,3.65
	C1646.499,1844.132,1637.686,1792.58,1628.693,1739.982z"/>
<path fill-rule="evenodd" clip-rule="evenodd" fill="none" d="M1547.533,1911.861c-7.444,0.951-13.906,1.775-21.048,2.688
	c-6.667-52.639-13.252-104.631-19.91-157.215c7.22-0.949,13.665-1.797,20.989-2.76
	C1534.39,1807.023,1540.903,1859.019,1547.533,1911.861z"/>
<path fill-rule="evenodd" clip-rule="evenodd" fill="none" d="M1703.544,1888.046c-3.821-6.986-7.372-13.453-10.902-19.932
	c-8.9-16.326-17.833-32.635-26.627-49.018c-0.979-1.826-1.782-4.148-1.592-6.139c2.465-25.873,5.121-51.727,7.752-77.582
	c0.079-0.773,0.405-1.52,0.812-2.984c5.778-0.99,11.731-2.012,18.594-3.189c-0.904,8.846-1.688,16.736-2.521,24.621
	c-1.829,17.297-3.626,34.598-5.577,51.881c-0.401,3.557,0.302,6.553,2.074,9.67c12.056,21.205,23.96,42.498,35.906,63.766
	c0.775,1.379,1.497,2.789,2.62,4.889C1717.358,1886.304,1710.654,1886.568,1703.544,1888.046z"/>
<path fill-rule="evenodd" clip-rule="evenodd" fill="none" d="M575.188,1882.152c0.083,5.092-3.75,9.326-8.853,9.436
	c-1.948,0.041-3.977-0.395-5.856-0.975c-36.262-11.189-72.508-22.43-108.75-33.682c-1.519-0.471-3.085-0.953-4.441-1.75
	c-3.833-2.25-5.488-6.777-4.162-10.879c1.415-4.375,5.625-7.16,10.203-6.588c1.57,0.197,3.113,0.713,4.636,1.186
	c35.868,11.111,71.732,22.236,107.593,33.371c1.522,0.473,3.077,0.939,4.485,1.666
	C573.337,1875.636,574.972,1878.474,575.188,1882.152z"/>
<path fill-rule="evenodd" clip-rule="evenodd" fill="none" d="M1831.237,1896.433c-5.569,0.1-9.254-2.523-10.473-6.734
	c-1.256-4.338,0.737-8.916,4.991-11.053c1.591-0.797,3.358-1.266,5.072-1.797c35.288-10.965,70.579-21.92,105.872-32.865
	c1.717-0.533,3.433-1.145,5.195-1.426c4.578-0.73,8.97,1.924,10.471,6.158c1.608,4.539-0.314,9.377-4.776,11.627
	c-1.592,0.805-3.342,1.322-5.055,1.854c-35.484,11.004-70.973,21.994-106.466,32.971
	C1834.174,1895.753,1832.229,1896.175,1831.237,1896.433z"/>
<path fill-rule="evenodd" clip-rule="evenodd" fill="none" d="M491.262,1746.388c0.797,0.188,2.357,0.502,3.887,0.926
	c34.834,9.699,69.666,19.406,104.49,29.139c1.529,0.428,3.083,0.949,4.451,1.734c3.836,2.195,5.503,6.611,4.277,10.848
	c-1.146,3.955-4.653,6.654-8.959,6.594c-1.764-0.025-3.56-0.449-5.276-0.926c-34.257-9.537-68.506-19.102-102.749-28.688
	c-1.915-0.535-3.894-1.068-5.617-2.012c-3.666-2.006-5.391-6.307-4.423-10.258C482.379,1749.511,486.123,1746.501,491.262,1746.388z
	"/>
<path fill-rule="evenodd" clip-rule="evenodd" fill="none" d="M631.191,1709.185c-0.729-0.184-2.281-0.545-3.814-0.973
	c-34.061-9.496-68.12-18.998-102.176-28.51c-1.537-0.43-3.102-0.832-4.554-1.475c-4.631-2.049-6.913-6.719-5.614-11.252
	c1.375-4.801,6.044-7.654,11.195-6.781c1.176,0.199,2.319,0.6,3.474,0.922c34.054,9.527,68.107,19.053,102.158,28.588
	c1.538,0.43,3.115,0.799,4.569,1.434c4.656,2.031,6.842,6.537,5.589,11.26C640.84,1706.835,636.946,1709.505,631.191,1709.185z"/>
<path fill-rule="evenodd" clip-rule="evenodd" fill="none" d="M1880.877,1674.72c-0.195,3.596-1.946,6.557-5.597,8.164
	c-1.636,0.721-3.385,1.203-5.113,1.686c-33.865,9.463-67.732,18.918-101.608,28.34c-1.909,0.531-3.893,1.045-5.853,1.092
	c-4.564,0.107-8.151-2.764-9.232-7.043c-1.042-4.119,0.907-8.611,4.832-10.625c1.579-0.811,3.362-1.256,5.089-1.74
	c34.051-9.543,68.104-19.068,102.164-28.58c1.726-0.482,3.479-1.031,5.249-1.156
	C1876.329,1664.464,1880.93,1668.902,1880.877,1674.72z"/>
<path fill-rule="evenodd" clip-rule="evenodd" fill="none" d="M1797.264,1800.47c-5.515-0.076-9.135-2.865-10.194-7.121
	c-1.034-4.152,0.901-8.574,4.866-10.607c1.58-0.809,3.364-1.25,5.091-1.734c34.048-9.545,68.101-19.072,102.157-28.588
	c1.725-0.48,3.479-1.02,5.248-1.154c4.368-0.334,8.361,2.5,9.62,6.588c1.366,4.434-0.469,9.035-4.654,11.18
	c-1.58,0.809-3.355,1.275-5.08,1.758c-34.244,9.582-68.494,19.146-102.747,28.697
	C1799.851,1799.966,1798.087,1800.285,1797.264,1800.47z"/>
<path fill-rule="evenodd" clip-rule="evenodd" fill="none" d="M546.466,1821.71c-0.09,5.246-4.454,9.424-9.797,9.211
	c-1.577-0.063-3.161-0.48-4.701-0.893c-20.069-5.375-40.131-10.773-60.191-16.184c-1.537-0.416-3.119-0.807-4.533-1.504
	c-4.264-2.104-6.274-6.686-4.998-11.029c1.279-4.352,5.46-7.238,10.061-6.869c0.984,0.078,1.956,0.377,2.918,0.635
	c20.655,5.512,41.317,10.996,61.955,16.57C543.664,1813.398,546.552,1816.681,546.466,1821.71z"/>
<path fill-rule="evenodd" clip-rule="evenodd" fill="none" d="M1859.14,1835.755c-4.663-0.08-8.412-2.84-9.607-6.674
	c-1.279-4.105,0.386-8.617,4.251-10.857c1.527-0.887,3.294-1.436,5.017-1.898c20.252-5.432,40.515-10.824,60.779-16.211
	c1.346-0.357,2.712-0.768,4.088-0.855c4.347-0.275,8.362,2.564,9.594,6.631c1.283,4.242-0.31,8.648-4.178,10.863
	c-1.529,0.877-3.307,1.383-5.028,1.848c-20.05,5.414-40.11,10.797-60.174,16.162
	C1862.15,1835.224,1860.37,1835.501,1859.14,1835.755z"/>
<path fill-rule="evenodd" clip-rule="evenodd" fill="none" d="M510.807,1703.232c0.96,0.234,2.52,0.57,4.054,0.998
	c19.257,5.359,38.512,10.723,57.761,16.111c1.534,0.43,3.097,0.887,4.507,1.604c4.301,2.191,6.217,6.639,4.922,11.072
	c-1.276,4.369-5.438,7.213-10.114,6.715c-1.773-0.189-3.519-0.742-5.25-1.225c-18.677-5.203-37.352-10.414-56.018-15.658
	c-1.915-0.539-3.892-1.074-5.621-2.014c-3.873-2.102-5.621-6.703-4.377-10.797C501.937,1705.871,505.817,1703.087,510.807,1703.232z
	"/>
<path fill-rule="evenodd" clip-rule="evenodd" fill="none" d="M1895.282,1717.523c-0.027,4.168-2.311,7.436-6.656,9.006
	c-3.002,1.084-6.121,1.848-9.201,2.709c-16.748,4.68-33.5,9.352-50.256,14.002c-1.923,0.535-3.864,1.166-5.834,1.338
	c-4.61,0.4-8.77-2.688-9.888-7.068c-1.069-4.191,0.813-8.578,4.775-10.641c1.577-0.82,3.341-1.326,5.065-1.809
	c19.054-5.346,38.114-10.662,57.179-15.967c1.534-0.426,3.095-0.914,4.668-1.027
	C1890.687,1707.671,1895.318,1712.058,1895.282,1717.523z"/>
<path fill-rule="evenodd" clip-rule="evenodd" fill="none" d="M594.381,1834.046c0.156,5.072-3.597,9.352-8.686,9.545
	c-1.938,0.074-3.982-0.32-5.84-0.926c-4.353-1.416-8.667-2.977-12.912-4.688c-5.322-2.146-7.752-7.109-6.087-11.977
	c1.689-4.943,6.556-7.598,12.032-5.988c5.34,1.572,10.572,3.563,15.734,5.658C592.326,1827.175,594.268,1830.367,594.381,1834.046z"
	/>
<path fill-rule="evenodd" clip-rule="evenodd" fill="none" d="M1835.193,1833.976c-0.041,3.367-1.484,6.539-4.858,7.963
	c-5.672,2.395-11.509,4.449-17.396,6.26c-3.179,0.977-6.333,0.123-8.844-2.311c-4.66-4.52-3.698-12.307,2.304-15.086
	c5.399-2.498,11.078-4.543,16.817-6.109C1829.511,1822.972,1835.112,1827.468,1835.193,1833.976z"/>
<path fill-rule="evenodd" clip-rule="evenodd" fill="none" d="M608.704,1729.318c5.458,1.195,11.462,3.35,16.513,7.293
	c3.081,2.404,3.497,6.199,2.1,9.857c-1.399,3.666-4.185,6.01-8.162,5.902c-6.787-0.182-12.63-3.369-17.986-7.123
	c-3.054-2.141-3.561-7.025-1.884-10.418C601.011,1731.337,603.866,1729.421,608.704,1729.318z"/>
<path fill-rule="evenodd" clip-rule="evenodd" fill="none" d="M1797.297,1743.738c-0.22,3.24-1.574,6.344-4.875,7.996
	c-3.73,1.869-7.581,3.592-11.541,4.883c-5.864,1.914-10.909-0.484-12.737-5.598c-1.796-5.02,0.66-9.773,6.456-12.287
	c3.467-1.504,6.894-3.254,10.52-4.205C1791.412,1732.88,1797.14,1737.253,1797.297,1743.738z"/>
<path fill-rule="evenodd" clip-rule="evenodd" fill="#FFFFFF" d="M1099.342,1856.869c-8.021-0.328-15.67-0.643-23.636-0.969
	c0-2.791-0.068-4.756,0.011-6.717c0.572-14.15,1.174-28.299,1.766-42.447c0.051-1.197,0.042-2.398,0.169-3.586
	c0.649-6.043,3.266-8.582,9.234-8.715c2.58-0.057,5.213,0.021,7.743,0.475c4.872,0.873,6.854,3.172,7.024,8.186
	c0.136,3.982-0.07,7.977-0.224,11.963c-0.456,11.76-0.947,23.518-1.462,35.275
	C1099.882,1852.281,1099.602,1854.218,1099.342,1856.869z"/>
<path fill-rule="evenodd" clip-rule="evenodd" fill="#FFFFFF" d="M1373.28,1910.277c-3.075-40.248-6.067-79.404-9.119-119.352
	c6.03-0.775,11.67-1.805,17.401-1.205c4.421,0.465,6.567,3.715,7.057,7.787c0.855,7.129,1.444,14.293,2.004,21.453
	c1.976,25.273,3.895,50.551,5.822,75.828c0.166,2.189,0.346,4.387,0.325,6.578c-0.043,4.588-1.526,6.693-6.125,7.371
	C1385.172,1909.544,1379.609,1909.746,1373.28,1910.277z"/>
<path fill-rule="evenodd" clip-rule="evenodd" fill="#FFFFFF" d="M787.803,1886.814c-2.84-0.41-6.624-0.797-10.341-1.527
	c-6.228-1.219-8.475-4.271-7.639-10.652c1.401-10.689,3.011-21.352,4.558-32.023c3.063-21.143,6.194-42.277,9.199-63.428
	c1.735-12.221,3.913-13.92,16.039-11.953c1.971,0.32,3.974,0.498,5.911,0.957c5.29,1.25,7.56,3.986,7.025,9.436
	c-0.72,7.348-1.89,14.652-2.945,21.963c-3.536,24.504-7.103,49.004-10.667,73.504c-0.316,2.174-0.608,4.357-1.066,6.502
	C796.684,1885.167,794.28,1887.033,787.803,1886.814z"/>
<path fill-rule="evenodd" clip-rule="evenodd" fill="#FFFFFF" d="M1248.813,1915.828c-1.097-39.801-2.185-79.268-3.292-119.424
	c5.899-0.152,11.045-0.574,16.159-0.328c4.4,0.211,6.905,2.697,7.765,7.051c0.499,2.531,0.588,5.164,0.663,7.756
	c0.919,31.584,1.813,63.17,2.686,94.754c0.221,7.963-1.54,9.852-9.662,10.162
	C1258.763,1915.962,1254.384,1915.828,1248.813,1915.828z"/>
<path fill-rule="evenodd" clip-rule="evenodd" fill="#FFFFFF" d="M950.397,1905.675c3.366-39.932,6.68-79.244,10.053-119.252
	c6.294,0.146,12.261-0.041,17.914,1.838c4.767,1.586,5.547,5.982,5.329,10.367c-0.279,5.584-0.87,11.152-1.341,16.727
	c-2.293,27.076-4.59,54.15-6.889,81.227c-0.118,1.393-0.15,2.805-0.415,4.17c-0.869,4.484-2.76,6.344-7.376,6.236
	C962.14,1906.861,956.622,1906.175,950.397,1905.675z"/>
<path fill-rule="evenodd" clip-rule="evenodd" fill="#FFFFFF" d="M899.807,1788.906c-1.328,11.602-2.667,23.309-4.008,35.016
	c-2.25,19.645-4.495,39.289-6.754,58.932c-0.297,2.578-0.576,5.166-1.016,7.723c-1.069,6.207-3.698,8.338-9.802,7.863
	c-3.382-0.264-6.767-0.639-10.115-1.182c-6.618-1.07-8.947-4.01-8.244-10.768c1.362-13.111,2.878-26.207,4.382-39.303
	c2.234-19.445,4.509-38.885,6.781-58.324c0.185-1.582,0.331-3.195,0.765-4.717c1.245-4.361,3.775-6.408,8.324-6.197
	c4.175,0.195,8.376,0.68,12.473,1.496C897.936,1780.513,899.929,1783.365,899.807,1788.906z"/>
<path fill-rule="evenodd" clip-rule="evenodd" fill="#FFFFFF" d="M1448.03,1783.25c5.737-0.506,10.646-1.113,15.574-1.318
	c3.833-0.16,6.399,1.988,7.638,5.58c0.517,1.498,0.925,3.072,1.104,4.643c1.216,10.725,2.365,21.455,3.517,32.186
	c0.127,1.191,0.18,2.395,0.188,3.592c0.04,7.037-2.412,9.916-9.283,10.752c-3.934,0.479-7.887,0.799-12.688,1.273
	C1452.058,1821.011,1450.082,1802.488,1448.03,1783.25z"/>
</svg>
