<?xml version="1.0" encoding="UTF-8"?>
<svg width="2400.2px" height="2400.2px" enable-background="new 0 0 2400.208 2400.208" version="1.1" viewBox="0 0 2400.2 2400.2" xml:space="preserve" xmlns="http://www.w3.org/2000/svg" xmlns:cc="http://creativecommons.org/ns#" xmlns:dc="http://purl.org/dc/elements/1.1/" xmlns:rdf="http://www.w3.org/1999/02/22-rdf-syntax-ns#"><metadata><rdf:RDF><cc:Work rdf:about=""><dc:format>image/svg+xml</dc:format><dc:type rdf:resource="http://purl.org/dc/dcmitype/StillImage"/><dc:title/></cc:Work></rdf:RDF></metadata><g clip-rule="evenodd" fill-rule="evenodd" stroke-width="1.2252"><g fill="#654236">
<path d="m2047.3 1718.3c38.296 99.732 76.284 198.66 114.52 298.24-3.0435 1.2399-5.4499 2.2826-7.9004 3.204-75.345 28.353-152.71 49.809-231.18 67.422-71.26 15.993-143.13 28.585-215.47 38.643-61.892 8.6049-123.98 15.34-186.25 20.551-129.04 10.802-258.31 14.64-387.75 12.504-77.676-1.2804-155.25-4.8532-232.72-10.889-59.123-4.6069-118.11-10.484-176.9-18.178-119.63-15.657-238.05-37.495-354.25-70.406-44.799-12.687-89.057-27.023-132.45-43.956-2.2287-0.8711-4.417-1.8427-7.3968-3.0913 39.186-99.25 78.174-198 117.36-297.25 5.7746 2.1687 10.758 4.0544 15.75 5.9082 61.647 22.918 124.92 40.205 189.05 54.495 71.06 15.833 142.8 27.731 214.98 37.092 69.03 8.9529 138.29 15.466 207.75 19.815 113.3 7.0954 226.7 8.8022 340.18 5.2429 57.077-1.7901 114.08-4.8226 170.99-9.4356 88.92-7.2106 177.43-17.766 265.34-33.152 66.635-11.664 132.78-25.546 197.71-44.618 30.293-8.9002 60.103-19.436 90.129-29.238 2.524-0.8209 5.0284-1.7117 8.5069-2.9026zm-316.37 333.52c-9.3878-64.606-18.596-128.18-28.14-192.28-8.9393 1.333-16.818 2.5056-25.431 3.7884 3.4723 29.3 8.6282 57.667 11.457 86.382-1.4617-1.2999-2.3377-2.7139-3.0312-4.2099-8.2385-17.778-16.443-35.57-24.667-53.353-3.1881-6.892-6.4227-13.76-9.5973-20.656-0.9606-2.089-1.9629-4.0678-4.7601-3.6708-7.4176 1.0525-14.829 2.1466-22.933 3.3241 4.7797 32.737 9.3535 64.443 14.051 96.129 4.7184 31.831 8.9761 63.735 14.237 95.928 9.1354-1.3429 17.335-1.7301 25.462-4.2663-5.8726-40.31-11.628-79.834-17.385-119.36 2.4383 1.7178 3.6268 3.7909 4.6658 5.9351 9.9281 20.498 19.656 41.098 29.835 61.473 3.5679 7.1432 5.7452 14.444 6.6788 22.32 0.9986 8.448 2.5044 16.835 3.9184 26.109 8.6171-1.213 16.528-2.3206 25.639-3.5986zm-603.33-149.87c-0.6298 64.855-1.251 128.9-1.8783 193.6 9.1722 0.4594 17.292 0.849 25.903-0.02 0.283-20.839 0.6016-40.892 0.8148-60.948 0.2107-19.853 0.3136-39.705 0.4643-59.555 0.5024-0.048 1.0047-0.095 1.5071-0.1433 0.718 2.0106 1.5168 3.9967 2.1405 6.038 5.0835 16.622 9.5177 33.476 15.36 49.828 6.4607 18.085 9.1992 36.41 7.6823 55.48-0.245 3.0754-0.036 6.1887-0.036 9.764 9.1452 0.2683 17.291 0.9716 26.02-0.2132 0.3565-64.706 1.7753-128.73 1.6222-193.26h-25.81c-0.3014 29.097-0.5991 57.991-0.8981 86.882-0.5391 0.078-1.0782 0.1605-1.6173 0.2389-8.4052-29.198-16.813-58.395-25.245-87.691h-26.03zm-28.816 192.19c0.2316-2.7323 0.5538-5.3702 0.6653-8.0192 2.0155-48.196 4.0188-96.392 5.9755-144.59 0.1985-4.8887 0.3872-9.8142 0.05-14.683-1.0121-14.655-8.7324-24.387-22.248-26.109-11.359-1.4458-22.966-1.855-34.413-1.4115-11.338 0.4399-19.244 6.9275-22.483 17.996-1.4287 4.8789-2.0879 10.068-2.442 15.16-0.6457 9.2776-0.7841 18.592-1.1725 27.889-1.7276 41.347-3.4773 82.692-5.184 124.04-0.096 2.3255 0.1176 4.6645 0.1923 7.1652 4.8054 0.2414 8.7078 0.5195 12.615 0.6126 4.074 0.098 8.1504 0.024 12.913 0.024 0.5256-11.846 1.0378-23.284 1.5389-34.726 0.5097-11.65 1.0059-23.299 1.4985-34.718h29.419c-0.4215 12.504-0.7572 24.168-1.2204 35.826-0.4619 11.625-1.4396 23.242-1.1909 35.547h25.486zm289.16-3.9771c6.3517-0.4693 11.9-0.8565 17.444-1.2951 12.45-0.9814 24.94-1.6222 37.337-3.0754 17.172-2.0081 25.146-11.517 24.61-28.683-0.2059-6.6028-0.9079-13.191-1.4176-19.783-2.8646-37.111-5.7133-74.225-8.6551-111.33-0.2696-3.3952-0.881-6.8173-1.7901-10.098-3.8975-14.035-13.583-21.866-28.095-22.755-3.6549-0.2255-7.3539-0.1654-11.01 0.086-10.505 0.7156-21.001 1.5867-31.497 2.4224-3.612 0.2867-7.2179 0.6457-11.718 1.0524 4.9378 64.592 9.8375 128.66 14.792 193.46zm-636.28-188.21c0.52931-20.616-7.4225-30.5-24.352-33.704-1.9249-0.3639-3.8583-0.7082-5.8015-0.9434-9.7113-1.1824-19.407-2.9798-29.15-3.3094-11.413-0.3835-19.702 5.4229-23.871 16.139-1.8452 4.7429-3.0717 9.8301-3.8252 14.876-5.4205 36.328-10.668 72.681-15.92 109.03-1.05 7.2682-2.3059 14.545-2.7274 21.858-0.91035 15.801 6.4313 26.209 21.648 29.521 11.451 2.4933 23.162 4.1756 34.846 5.1043 14.371 1.1395 23.913-5.8676 28.174-19.566 1.3735-4.4157 2.1577-9.0484 2.8364-13.638 4.2969-29.069 8.5032-58.149 12.712-87.229 1.9984-13.81 3.9355-27.628 5.4303-38.143zm482.55 193.63c2.2838 0.2805 3.7088 0.6408 5.1252 0.6003 16.633-0.4643 33.269-0.9189 49.897-1.5573 2.8928-0.1102 5.8358-0.7939 8.6171-1.6589 9.8375-3.0558 15.678-9.7015 16.858-20.02 0.4423-3.8693 0.4165-7.8134 0.321-11.718-0.6862-28.133-1.414-56.266-2.1895-84.398-0.397-14.432-0.6359-28.876-1.4556-43.288-1.1897-20.902-12.978-32.06-33.904-32.728-1.4654-0.048-2.9369-0.043-4.4048 0-12.719 0.381-25.44 0.7511-38.156 1.2007-1.8342 0.065-3.6525 0.5379-6.0147 0.9091 1.7766 64.551 3.5409 128.54 5.3065 192.66zm-351.85-208.67c-5.483 64.897-10.874 128.7-16.308 193.01 2.7335 0.4644 4.8324 0.9741 6.9582 1.1603 12.435 1.0892 24.87 2.2042 37.321 3.0986 5.358 0.3848 10.782 0.6776 16.124 0.2917 12.316-0.8908 19.697-7.4691 22.489-19.542 0.5477-2.3696 0.7866-4.825 0.9961-7.2558 2.7948-32.187 5.5786-64.373 8.3182-96.566 0.9349-10.972 1.9604-21.946 2.5534-32.943 1.1885-22.004-8.7813-34.226-30.578-37.171-9.9318-1.3429-19.985-1.7999-29.984-2.6417-5.5712-0.468-11.145-0.8993-17.89-1.4396zm-73.441 187.43c20.188 0.6726 29.992-6.9778 33.497-23.553 0.60772-2.8719 1.0427-5.7868 1.3796-8.7016 3.8558-33.323 7.7105-66.645 11.487-99.978 1.1848-10.455 2.7886-20.927 3.0251-31.416 0.36758-16.38-8.3206-26.46-24.3-28.954-9.9098-1.5487-19.913-2.6992-29.918-3.3767-18.625-1.2657-29.005 7.2436-32.125 25.687-0.16296 0.9667-0.2622 1.9432-0.37493 2.9173-4.3312 37.456-8.6784 74.913-12.972 112.37-0.83684 7.2939-1.8893 14.602-2.0903 21.926-0.45334 16.567 7.6431 26.802 23.576 29.502 10.608 1.7998 21.372 2.6759 28.815 3.574zm666.38-185.82c6.9092 64.94 13.682 128.62 20.535 193.03 9.0031-1.0047 17.119-1.9126 25.812-2.8818-2.7372-26.326-5.3813-51.744-8.0866-77.755 5.6643-0.593 10.389-1.0868 15.387-1.6088 8.5412 25.655 16.867 50.666 25.325 76.075 8.3451-0.979 15.993-1.8734 24.406-2.8597-8.997-26.675-17.65-52.334-26.316-78.031 10.089-7.2632 12.576-17.186 12.054-28.224-0.2659-5.6165-0.8834-11.221-1.4826-16.819-1.4568-13.631-2.6049-27.309-4.5983-40.862-2.7446-18.673-13.169-26.764-31.92-25.685-1.4666 0.083-2.932 0.2156-4.3912 0.3688-8.7642 0.9214-17.532 1.8231-26.29 2.7997-6.4999 0.7277-12.988 1.5585-20.433 2.4553zm-882.98-41.972c-11.134 64.225-22.145 127.48-32.931 191.4 9.0742 1.512 16.935 3.8362 25.475 3.7309 5.6766-28.866 9.5802-57.368 15.318-85.894 11.555 1.871 22.08 3.5777 32.958 5.3408 1.8232-8.089 3.7076-15.26 3.6512-23.041-11.237-2.0535-21.727-3.9722-32.79-5.9951 3.367-19.486 6.5992-38.198 9.9502-57.594 12.86 2.0511 25.039 3.9919 37.85 6.0356 1.3919-8.0192 2.6232-15.12 3.9943-23.016-21.253-3.6684-41.663-7.1934-63.476-10.964zm1132.8 9.4724c11.017 64.445 21.817 127.61 32.734 191.47 8.9284-1.5561 16.995-2.9602 25.674-4.4722-11.042-64.184-21.591-127.55-32.841-191.4-8.8622 1.5254-16.727 2.8806-25.566 4.4048zm-99.441 210.59c-8.1234-64.744-16.105-128.45-24.467-192.71-8.9737 1.1799-16.872 2.2189-25.717 3.3817 8.1577 64.428 16.226 128.13 24.395 192.63 8.7507-1.1186 16.668-2.1282 25.789-3.2934zm191.15-29.179c8.7115-1.8121 16.926-2.1344 25.164-4.923-1.376-2.573-2.2606-4.3006-3.2102-5.9902-14.637-26.058-29.223-52.148-43.994-78.129-2.1711-3.8191-3.0337-7.4899-2.5411-11.848 2.3904-21.176 4.5922-42.374 6.8332-63.567 1.0218-9.661 1.9812-19.328 3.0888-30.167-8.4076 1.4433-15.702 2.6943-22.782 3.9073-0.4974 1.795-0.8968 2.709-0.9949 3.6561-3.2236 31.679-6.4778 63.356-9.498 95.057-0.2328 2.4382 0.7498 5.2844 1.9505 7.5217 10.775 20.073 21.72 40.054 32.625 60.059 4.3263 7.9396 8.6772 15.863 13.359 24.423zm-1382.5-7.224c-0.26955-4.504-2.2716-7.9813-6.31-10.063-1.7251-0.8907-3.6292-1.4617-5.4952-2.0412-43.938-13.643-87.881-27.274-131.83-40.888-1.866-0.5796-3.7554-1.2106-5.6802-1.4531-5.6092-0.7009-10.769 2.7114-12.501 8.0719-1.6247 5.0259 0.40188 10.573 5.0995 13.329 1.6614 0.9765 3.5814 1.5671 5.4413 2.1442 44.406 13.786 88.817 27.558 133.25 41.269 2.3035 0.7106 4.7895 1.2449 7.175 1.1946 6.2536-0.1348 10.95-5.3224 10.853-11.564zm1539 17.5c1.2143-0.3161 3.5986-0.8331 5.9204-1.5511 43.488-13.45 86.969-26.915 130.45-40.398 2.0988-0.6506 4.243-1.2853 6.1936-2.2716 5.467-2.7568 7.8232-8.6846 5.8518-14.246-1.8391-5.1877-7.2204-8.4407-12.83-7.5451-2.1601 0.3443-4.2626 1.0941-6.3651 1.7472-43.242 13.41-86.483 26.833-129.72 40.268-2.1001 0.6506-4.2651 1.2253-6.2144 2.2018-5.2122 2.6183-7.6541 8.2275-6.1152 13.543 1.4923 5.1607 6.0074 8.3745 12.831 8.252zm-1641.8-183.84c-6.2965 0.1384-10.884 3.8264-12.154 9.0141-1.186 4.8409 0.92873 10.111 5.4192 12.568 2.1123 1.1554 4.5371 1.8097 6.8822 2.4652 41.956 11.745 83.918 23.463 125.89 35.15 2.1025 0.5844 4.3031 1.1027 6.4644 1.1346 5.2759 0.075 9.5728-3.2334 10.977-8.0793 1.5034-5.1901-0.53911-10.601-5.2404-13.291-1.6761-0.9618-3.5802-1.6014-5.4536-2.1246-42.668-11.924-85.346-23.818-128.03-35.702-1.8722-0.5195-3.7848-0.9042-4.7613-1.1345zm171.45-45.583c7.0513 0.3921 11.822-2.8793 13.266-8.3157 1.5352-5.7868-1.1444-11.308-6.8479-13.796-1.7827-0.7781-3.7149-1.2302-5.5981-1.757-41.721-11.683-83.444-23.354-125.17-35.027-1.4139-0.3945-2.8156-0.8858-4.2565-1.1297-6.3112-1.0696-12.032 2.426-13.717 8.3084-1.5916 5.554 1.2044 11.276 6.8785 13.786 1.779 0.7879 3.6966 1.2804 5.5798 1.8073 41.728 11.654 83.459 23.297 125.19 34.932 1.8783 0.5244 3.7799 0.9667 4.6731 1.1921zm1531.2-42.228c0.065-7.1284-5.5724-12.566-12.337-12.085-2.1686 0.1532-4.3165 0.8259-6.4313 1.4164-41.732 11.654-83.455 23.325-125.18 35.018-2.116 0.593-4.3006 1.1395-6.2353 2.1319-4.8091 2.4676-7.1971 7.9714-5.9204 13.018 1.3245 5.2428 5.7195 8.7605 11.312 8.6294 2.4015-0.058 4.8311-0.6874 7.1713-1.338 41.506-11.544 83.002-23.129 124.49-34.723 2.1184-0.5905 4.2614-1.1823 6.2646-2.0657 4.4734-1.9678 6.6188-5.5957 6.8577-10.002zm-102.45 154.07c1.0084-0.2279 3.1697-0.6175 5.2772-1.2032 41.968-11.702 83.933-23.42 125.89-35.161 2.1135-0.5906 4.2883-1.1628 6.2242-2.154 5.1289-2.6281 7.3772-8.2655 5.7023-13.698-1.5426-5.0088-6.435-8.4812-11.787-8.0719-2.1686 0.1654-4.3165 0.8258-6.43 1.4139-41.728 11.659-83.45 23.332-125.17 35.027-2.116 0.593-4.3019 1.1345-6.2378 2.1245-4.858 2.491-7.2289 7.909-5.962 12.996 1.2975 5.2159 5.7329 8.6331 12.49 8.7262zm-1532.5 26.024c0.10537-6.1618-3.4331-10.186-11.378-12.33-25.287-6.8295-50.603-13.55-75.91-20.302-1.1787-0.3161-2.3696-0.6824-3.5753-0.778-5.6373-0.4521-10.76 3.0852-12.327 8.4162-1.5634 5.3225 0.8981 10.936 6.1238 13.513 1.7337 0.854 3.6721 1.3331 5.554 1.8428 24.578 6.6286 49.159 13.244 73.749 19.829 1.8869 0.5048 3.8277 1.017 5.7599 1.0942 6.5465 0.2609 11.893-4.8569 12.004-11.286zm1608.3 17.208c1.5071-0.3112 3.6892-0.6506 5.8089-1.2154 24.582-6.5735 49.162-13.169 73.728-19.802 2.1099-0.5698 4.2871-1.1897 6.1605-2.2643 4.7393-2.7139 6.6911-8.1123 5.1191-13.31-1.5083-4.9818-6.4289-8.4615-11.755-8.1246-1.6859 0.1078-3.3596 0.6102-5.0088 1.0476-24.83 6.6004-49.655 13.207-74.469 19.862-2.1111 0.5673-4.2748 1.24-6.147 2.3255-4.7356 2.7446-6.7756 8.2729-5.2085 13.302 1.4654 4.7 6.0588 8.0805 11.772 8.1785zm-1652-162.37c-6.1127-0.1777-10.868 3.2334-12.42 8.3402-1.5242 5.0161 0.61752 10.654 5.3629 13.229 2.1184 1.1505 4.5408 1.8073 6.8871 2.4677 22.872 6.4252 45.752 12.81 68.636 19.185 2.1221 0.5906 4.2602 1.2682 6.4325 1.501 5.7292 0.6101 10.827-2.8745 12.392-8.2275 1.5867-5.4328-0.76087-10.881-6.0306-13.566-1.7276-0.8785-3.6426-1.4385-5.5222-1.9653-23.585-6.6029-47.177-13.174-70.771-19.74-1.8795-0.5257-3.7897-0.9373-4.9659-1.224zm1696.3 17.51c0.044-6.6959-5.6313-12.071-12.433-11.587-1.9273 0.1384-3.8399 0.7376-5.7194 1.2583-23.358 6.4999-46.712 13.013-70.058 19.564-2.1136 0.5905-4.2737 1.2105-6.2059 2.2164-4.8556 2.5277-7.1615 7.9016-5.8505 13.038 1.3698 5.3677 6.4656 9.1513 12.115 8.66 2.4137-0.2108 4.7919-0.9839 7.1481-1.6394 20.53-5.6974 41.055-11.422 61.576-17.156 3.7737-1.0549 7.5953-1.991 11.274-3.3191 5.3236-1.9249 8.1209-5.9278 8.154-11.035zm-1593.9 142.77c-0.13845-4.5089-2.5179-8.4187-7.0562-10.262-6.3247-2.5681-12.735-5.0063-19.278-6.9324-6.7094-1.9714-12.671 1.2804-14.742 7.3368-2.04 5.9632 0.93854 12.044 7.4581 14.675 5.2012 2.0964 10.488 4.0078 15.82 5.744 2.2753 0.7412 4.7809 1.2252 7.1554 1.1345 6.2353-0.2377 10.834-5.4805 10.642-11.696zm1520.3-0.086c-0.099-7.9739-6.9631-13.483-14.675-11.374-7.0317 1.9187-13.99 4.4243-20.605 7.485-7.3539 3.4049-8.5326 12.946-2.8229 18.484 3.0766 2.9822 6.941 4.0274 10.836 2.8315 7.213-2.2189 14.365-4.7355 21.314-7.67 4.1339-1.7447 5.902-5.6312 5.9522-9.7566zm-1502.7-128.23c-5.9277 0.1274-9.4258 2.475-11.542 6.7535-2.0547 4.1573-1.4335 10.141 2.3084 12.765 6.5624 4.5996 13.723 8.5044 22.037 8.7274 4.874 0.1311 8.2863-2.7396 10-7.2314 1.7117-4.4819 1.202-9.1317-2.573-12.077-6.1862-4.8336-13.544-7.4728-20.231-8.9369zm1456.3 17.668c-0.1924-7.9445-7.2106-13.302-14.921-11.286-4.4428 1.1652-8.6417 3.3093-12.89 5.1521-7.1015 3.0803-10.111 8.9051-7.9102 15.055 2.2398 6.2646 8.4211 9.204 15.606 6.8589 4.8519-1.5818 9.5703-3.6929 14.14-5.9829 4.0457-2.0241 5.7047-5.8272 5.9743-9.797z"/>
<path d="m2032.4 1138.8c-0.778 141.54-33.108 275.18-100.31 400.06-5.3384 9.922-11.101 19.619-16.715 29.389-3.351 5.837-8.214 9.6267-14.975 10.791-14.769 2.5362-27.317-11.152-23.138-25.551 1.0709-3.6929 3.1342-7.1628 5.1056-10.518 45.628-77.647 76.558-160.8 93.808-249.14 12.317-63.076 17.164-126.74 14.196-190.88-7.5622-163.48-61.021-310.67-160.3-440.56-104.75-137.04-240.27-230.47-405.71-279.88-76.627-22.889-155.06-33.241-235.03-32.028-267.86 4.0641-513.16 141.46-656.94 368.25-57.011 89.924-94.45 187.43-111.59 292.58-10.015 61.441-12.657 123.25-8.0731 185.37 8.5792 116.32 40.353 225.78 96.526 328.07 5.3065 9.6635 11.177 19.013 16.551 28.638 5.309 9.5079 3.4221 20.066-4.4158 26.573-8.9124 7.3993-22.264 5.978-29.423-3.3547-2.5228-3.291-4.5518-6.9704-6.669-10.556-55.015-93.121-90.06-193.31-106.33-300.16-8.9578-58.842-11.794-117.98-8.1785-177.37 8.415-138.23 49.035-266.38 121.89-384.1 73.504-118.78 170.74-213.47 291.56-283.65 86.042-49.973 178.32-82.938 276.39-99.806 58.194-10.01 116.81-13.936 175.73-11.183 162.5 7.5904 311.04 57.22 443.9 151.31 138.83 98.314 238.5 227.56 299.57 386.39 22.248 57.867 36.953 117.7 45.115 179.17 4.9427 37.223 7.4912 74.584 7.463 112.16z"/>
<path d="m677.39 740.25c-0.26587-8.1381 1.5732-16.302 7.4286-23.282 2.7127-3.2346 5.8971-4.7846 10.223-4.613 8.5485 0.34185 16.307 3.0901 23.732 7.0452 10.5 5.5945 19.263 13.4 27.608 21.748 62.188 62.204 124.38 124.41 186.59 186.59 81.454 81.399 162.71 163 244.49 244.07 52.727 52.27 106.63 103.36 163.8 150.79 48.646 40.355 97.966 79.899 146.96 119.83 23.74 19.348 47.587 38.57 71.072 58.221 15.007 12.561 26.848 27.862 35.34 45.54 2.524 5.2526 4.5224 10.912 5.7611 16.603 3.4723 15.953-0.069 30.129-12.049 41.744-0.8785 0.8516-1.7496 1.7129-2.6526 2.5412-20.31 18.61-41.092 20.573-64.3 5.7917-14.376-9.1587-26.47-21.002-37.707-33.68-49.088-55.38-95.504-113.02-143.04-169.72-49.742-59.339-100.17-118.08-153.49-174.27-18.556-19.551-37.438-38.791-58.328-55.916-13.595-11.145-28.839-19.447-45.345-25.296-11.436-4.0531-23.035-6.7229-34.987-0.9275-2.2948 1.1125-5.8039 0.3271-8.5975-0.2904-25.222-5.5626-46.134-18.577-63.665-37.299-25.789-27.541-51.546-55.111-77.332-82.654-52.576-56.16-105.09-112.38-157.8-168.41-13.204-14.035-23.645-29.978-33.771-46.178-9.7542-15.606-18.371-31.826-24.395-49.295-3.1232-9.068-5.5148-18.295-5.5553-28.69z"/>
<path d="m2183.2 1754.6c70.094 28.052 140.08 56.062 210.06 84.07 0.05 0.5342 0.1005 1.0672 0.1507 1.6014-76.714 31.967-153.43 63.933-230.81 96.179-1.5572-3.9122-2.8352-7.0329-4.0433-10.178-27.485-71.584-55.008-143.16-82.383-214.78-3.5814-9.3682-8.8217-16.878-18.418-20.714-8.2643-3.3069-16.167-1.7619-24.326 0.9974-30.387 10.281-60.885 20.231-91.358 30.255-2.954 0.9716-6.0245 1.594-9.9061 2.6036-3.8754-13.452-7.5658-26.257-11.47-39.806 125.85-44.315 250.97-88.373 375.75-132.31 0.7339 0.5722 0.9887 0.6824 1.0929 0.8736 0.1078 0.2009 0.109 0.484 0.081 0.7204-0.027 0.2304-0.1347 0.457-0.2377 0.6727-0.2131 0.4398-0.4337 0.8785-0.6738 1.3061-0.359 0.6408-0.7389 1.2706-1.1052 1.9077-37.066 64.047-74.132 128.09-111.2 192.14-0.245 0.424-0.4778 0.854-0.7008 1.2902-0.1127 0.2181-0.1997 0.4472-0.2818 0.6776-0.083 0.2303-0.1765 0.4619-0.2132 0.7008-0.037 0.2402-0.01 0.4889-0.01 1.7925z"/>
<path d="m220.06 1754.2c-39.085-67.524-77.466-133.83-115.71-199.89 0.48152-0.7033 0.57708-0.9263 0.74249-1.0623 0.17521-0.1458 0.4656-0.3492 0.62365-0.2916 123.64 43.388 247.28 86.799 370.9 130.23 1.3514 0.4742 2.6012 1.2302 4.6743 2.2275-3.7419 12.98-7.4348 25.785-11.296 39.175-3.2873-0.7854-5.8726-1.2951-8.3966-2.0216-33.678-9.6819-66.985-20.478-99.675-33.152-3.8546-1.4935-7.882-2.9577-11.945-3.4147-13.536-1.5242-25.175 5.7844-30.616 19.166-6.642 16.337-12.98 32.8-19.457 49.206-22.306 56.507-44.614 113.01-66.929 169.52-0.97529 2.4701-2.0351 4.9083-3.0031 7.2339-5.7684-0.6727-213.58-86.865-221.68-92.046 35.64-14.602 70.803-28.404 105.85-42.491 34.967-14.055 69.974-28.003 105.91-42.381z"/>
<path d="m1283.5 732.12v121.14h-164.54v-121.26c-4.7809-1.3416-8.7948-2.3512-12.736-3.59-43.594-13.708-59.394-71.997-24.619-106.41 11.347-11.231 25.755-15.747 41.325-16.695 5.8321-0.35532 11.797-0.16541 17.57 0.67511 4.3949 0.63835 6.6751-0.70206 8.8928-4.3092 9.2677-15.079 22.389-25.326 39.811-29.06 25.48-5.4621 46.888 1.931 63.914 21.737 1.115 1.2963 2.2091 2.6502 3.0717 4.118 3.117 5.3016 7.5034 7.224 13.63 6.0895 7.5855-1.4041 15.14-0.49622 22.544 1.5083 26.213 7.0991 45.818 30.917 47.326 57.435 1.5892 27.927-14.699 53.457-40.74 63.607-4.7626 1.8587-9.7321 3.1832-15.448 5.0235z"/>
<path d="m1683.2 766.15c5.4829 5.2759 10.347 9.9576 15.638 15.048-2.54 2.6343-4.6805 4.9267-6.8969 7.1419-52.845 52.857-105.68 105.72-158.59 158.52-3.7296 3.7211-6.8748 7.6541-8.2005 12.8-1.4201 5.5124 0.6322 7.8575 6.4117 7.3809 4.858-0.40188 8.6281-2.7139 12.126-6.1409 30.632-30.012 61.388-59.898 92.1-89.828 24.395-23.772 48.779-47.555 73.179-71.323 1.213-1.1811 2.5265-2.2594 4.4256-3.9502 3.7014 3.5716 7.2963 7.0402 11.136 10.745-1.0659 1.5414-1.7521 2.7911-2.6771 3.8289-49.527 55.662-99.639 110.78-152.98 162.85-10.514 10.265-21.556 19.994-32.416 29.9-12.771 11.65-27.084 21.004-42.739 28.307-15.541 7.2497-30.928 14.871-46.711 21.553-27.2 11.516-50.859 28.215-72.985 47.492-37.919 33.035-73.333 68.653-108.53 104.5-3.0448 3.1011-6.1005 6.1936-9.6782 9.8265-11.145-10.598-21.733-20.669-32.942-31.33 2.2017-2.1809 3.9857-4.0543 5.8787-5.8101 32.893-30.516 65.011-61.802 94.162-95.978 17.84-20.911 35.142-42.336 46.606-67.559 9.1158-20.06 17.112-40.63 25.61-60.971 1.5108-3.6169 3.1011-7.2008 4.5824-10.829 7.8024-19.116 19.05-35.794 34.366-49.777 41.802-38.161 83.346-76.603 125.27-114.63 21.959-19.919 44.492-39.207 66.781-58.76 1.7962-1.5744 3.7235-2.9994 5.7501-4.6216 4.2773 4.2749 8.1736 8.1687 12.436 12.43-2.0351 2.1613-3.7983 4.1352-5.6655 6.0037-52.667 52.688-105.35 105.36-158 158.07-3.2836 3.2873-6.4092 6.7548-9.3486 10.351-1.5242 1.8636-2.8426 4.0703-3.6132 6.3394-1.6431 4.8446 2.0167 8.8107 6.7314 6.854 3.938-1.6345 7.6517-4.3888 10.743-7.3907 10.897-10.58 21.404-21.559 32.198-32.244 44.24-43.785 88.53-87.519 132.81-131.26 1.7141-1.6933 3.5458-3.2665 5.6508-5.1987 3.5532 3.6696 6.8565 7.077 10.527 10.868-1.6479 1.817-3.1991 3.6414-4.8679 5.3494-52.374 53.664-104.79 107.29-157.08 161.03-3.5323 3.6304-6.6616 7.8918-9.0349 12.36-3.9894 7.5132-1.4679 11.283 6.843 11.043 7.3343-0.21197 13.37-2.6478 18.815-8.2238 52.217-53.476 104.69-106.7 157.1-159.99 1.534-1.5573 3.1807-3.0006 5.0774-4.7846z"/>
<path d="m1159.1 1239.5c12.392 13.169 24.096 25.603 35.999 38.251-1.5022 1.8477-2.4689 3.2237-3.6206 4.4244-54.822 57.124-106.15 117.42-159.39 175.97-39.722 43.692-79.8 87.065-119.89 130.41-6.9716 7.5377-14.562 14.564-22.319 21.306-9.378 8.1528-20.311 13.641-32.502 16.366-24.871 5.5589-45.997-8.5571-50.125-33.72-2.97-18.098 0.80744-35.087 12.58-49.022 12.461-14.753 25.957-28.726 39.863-42.146 54.159-52.254 110.97-101.59 168.03-150.61 41.262-35.444 82.96-70.382 124.47-105.54 2.0266-1.7128 4.0985-3.3743 6.9104-5.6875z"/>
<path d="m1803.2 1183.8c-2.2741 2.5044-3.764 4.3141-5.4242 5.9486-11.516 11.341-22.987 22.73-34.658 33.907-3.3106 3.1709-4.602 6.207-3.6917 10.967 3.1673 16.586 5.8236 33.27 8.6429 49.924 0.2781 1.6345 0.332 3.3045 0.5734 5.8321-2.3941-0.9495-4.1756-1.4862-5.7979-2.3304-14.765-7.6933-29.609-15.246-44.181-23.294-4.4697-2.4701-7.8943-2.2348-12.197 0.1152-13.965 7.6247-28.126 14.896-42.222 22.285-2.089 1.0941-4.2442 2.0682-7.5144 3.6537 0.419-3.7015 0.5795-6.0858 0.9716-8.4285 2.5877-15.452 5.0541-30.928 7.9432-46.325 1.0096-5.3825-0.1102-9.144-4.2246-12.97-11.653-10.836-22.878-22.133-34.248-33.273-1.6578-1.6223-3.1856-3.3793-5.7243-6.0907 8.3059-1.3135 15.218-2.4738 22.148-3.4871 11.384-1.6626 22.761-3.3914 34.182-4.7613 4.6523-0.5587 7.3576-2.6024 9.378-6.8687 6.9177-14.6 14.208-29.025 21.385-43.502 1.0574-2.1343 2.2777-4.1878 3.8963-7.1407 1.5279 2.6894 2.6686 4.4979 3.6181 6.4032 7.213 14.459 14.634 28.823 21.441 43.473 2.4051 5.1767 5.7623 7.088 11.126 7.7742 16.51 2.1099 32.963 4.6584 49.435 7.0611 1.3588 0.1985 2.6894 0.5832 5.1436 1.1284z"/>
<path d="m780.73 1183.8c-2.932 3.0521-4.7209 5.0051-6.6053 6.8638-10.809 10.654-21.466 21.475-32.551 31.834-4.4329 4.1425-5.8371 8.2324-4.6461 14.213 3.008 15.117 5.4242 30.35 8.0278 45.545 0.40555 2.3622 0.54523 4.7698 0.93608 8.323-2.7592-1.1823-4.7025-1.866-6.5109-2.8094-14.536-7.588-29.15-15.045-43.508-22.959-4.444-2.4504-7.8881-2.2323-12.199 0.1311-13.735 7.5292-27.675 14.683-41.548 21.959-2.3378 1.2277-4.7368 2.3377-7.9212 3.9011 0.15316-2.5963 0.10537-4.2099 0.36145-5.7745 2.6943-16.421 5.1448-32.89 8.3292-49.218 1.0978-5.6238-0.42515-9.0766-4.3864-12.787-11.434-10.706-22.527-21.776-33.732-32.729-1.7129-1.6737-3.3057-3.4736-5.5847-5.88 2.3096-0.7008 3.7725-1.3502 5.2992-1.5768 16.459-2.4518 32.9-5.0578 49.409-7.1163 5.5283-0.6898 8.6502-2.9834 10.993-8.0008 6.6261-14.19 13.742-28.149 20.689-42.186 1.0721-2.1637 2.2716-4.2638 3.8142-7.1456 1.2988 1.8183 2.3917 2.9908 3.0778 4.3656 7.5365 15.111 15.178 30.176 22.402 45.437 2.2692 4.7956 5.3898 6.7915 10.562 7.447 16.505 2.0878 32.952 4.6535 49.418 7.0489 1.3943 0.207 2.7727 0.5231 5.8738 1.1137z"/>
<path d="m592.35 1699.4c-6.0098-0.163-11.052-2.5534-14.805-7.0758-13.423-16.184-26.928-32.308-39.925-48.831-7.3282-9.3179-5.4695-21.841 3.318-28.868 8.9565-7.1603 21.512-5.5883 29.348 3.8791 12.785 15.444 25.451 30.985 38.158 46.492 5.8346 7.1199 7.1481 15.009 3.0202 23.255-3.8534 7.7031-10.536 11.237-19.115 11.148z"/>
<path d="m1869.5 1632c-1.8832 4.1499-3.03 8.883-5.7733 12.353-12.583 15.931-25.391 31.696-38.565 47.141-7.8427 9.1942-20.208 9.9772-28.91 2.7286-8.905-7.4188-10.024-19.991-2.3047-29.547 12.452-15.414 25.045-30.712 37.688-45.969 6.2316-7.5218 15.317-9.8951 23.748-6.5526 7.9739 3.1636 13.328 11.049 14.116 19.845z"/>
<path d="m317.28 903.31c1.6749-6.8074 3.416-15.454 5.9449-23.865 7.3196-24.332 14.938-48.576 22.498-72.836 0.64938-2.0841 1.5058-4.172 2.6514-6.0172 3.0729-4.9439 8.7972-6.7413 14.055-4.6486 5.2722 2.0976 8.2875 7.3061 7.2669 12.951-0.38841 2.1442-1.2093 4.2246-1.953 6.2904-10.604 29.47-19.484 59.45-26.591 89.954-0.38718 1.6639-0.7376 3.3572-1.3416 4.9475-2.214 5.8236-7.6186 9.0239-13.25 7.9604-6.0454-1.1419-9.7897-6.2978-9.28-14.736z"/>
<path d="m1519.7 278.57c1.2486 0.36634 3.6341 0.89932 5.8971 1.7558 29.298 11.087 57.984 23.58 85.985 37.633 0.6543 0.32959 1.3257 0.63223 1.9604 0.99858 6.5097 3.7578 8.8622 10.086 5.9865 16.067-2.8413 5.9057-9.4858 8.0829-16.269 5.1264-4.0322-1.757-7.8611-3.9784-11.895-5.7317-23.989-10.421-48.012-20.764-72.02-31.14-2.4665-1.066-5.0762-1.9077-7.3368-3.3094-4.5555-2.8205-6.3394-8.4088-4.6719-13.518 1.5549-4.7723 6.0442-7.9371 12.363-7.882z"/>
<path d="m1970.8 640.15c-0.2046 6.3896-2.2863 10.019-6.6616 12.161-4.3986 2.1552-8.6515 1.6198-12.332-1.4605-1.8317-1.5316-3.2836-3.6083-4.6265-5.6239-16.416-24.631-33.938-48.441-52.705-71.334-1.2363-1.507-2.5068-3.0398-3.4282-4.7417-2.9038-5.3568-1.5181-11.564 3.2028-15.082 4.3484-3.2396 10.584-2.943 14.878 0.79518 1.0978 0.95446 2.0388 2.1074 2.9675 3.2371 19.744 23.992 38.201 48.936 55.261 74.904 1.6908 2.5742 2.709 5.5896 3.4441 7.1444z"/>
<path d="m1666.8 349.23c1.2865 0.5146 4.0078 1.1088 6.1704 2.5448 24.891 16.519 49.728 33.123 74.478 49.854 2.1234 1.436 3.9686 3.7125 5.1669 6.0037 2.2863 4.3729 1.2056 8.6784-1.9727 12.246-3.1783 3.5691-7.2828 4.9622-11.963 3.438-1.8268-0.59546-3.5568-1.6332-5.1705-2.709-24.444-16.31-48.865-32.654-73.27-49.021-1.4091-0.94466-2.8671-1.9726-3.911-3.2751-3.0374-3.7823-3.3707-8.0682-1.4679-12.441 1.7926-4.1254 6.0638-6.6911 11.94-6.6408z"/>
<path d="m460.77 625.91c-8.6282-0.23034-14.038-7.8661-11.26-15.418 0.9079-2.4689 2.4505-4.7932 4.0776-6.8932 16.914-21.813 33.896-43.573 50.893-65.321 1.3502-1.7276 2.8193-3.4062 4.4562-4.8556 4.6706-4.1376 10.841-4.3141 15.399-0.60159 4.7147 3.8399 5.6508 10.401 2.2103 15.849-0.64937 1.0268-1.447 1.969-2.2471 2.8891-18.778 21.596-36.314 44.161-52.746 67.588-2.8034 3.9943-6.0772 7.0415-10.783 6.7646z"/>
<path d="m2086.5 903.52c0.1409 6.6702-3.3167 11.303-8.8891 12.741-5.3372 1.3784-10.923-1.2387-13.329-6.5514-1.1003-2.4309-1.6541-5.1117-2.4456-7.6835-7.4936-24.314-15.003-48.625-22.45-72.953-0.7804-2.5485-1.6014-5.1963-1.6834-7.8207-0.1655-5.2784 3.0643-9.3327 8.1025-10.961 4.7809-1.5438 10.049 0.1409 12.92 4.4403 1.2019 1.8011 2.0804 3.9 2.7261 5.9816 8.0928 26.181 16.124 52.379 24.14 78.583 0.4962 1.6247 0.7217 3.3339 0.9091 4.2234z"/>
<path d="m291.09 1041c1.7692-12.675 3.7309-27.976 6.0907-43.216 1.7962-11.608 4.0801-23.142 6.1899-34.701 0.39575-2.1626 0.77068-4.3741 1.5512-6.4129 2.1699-5.6643 7.8955-8.6429 13.631-7.3098 5.3948 1.2546 9.2396 6.1005 9.0043 11.873-0.11885 2.91-0.90546 5.7917-1.3576 8.6894-3.8154 24.424-7.6247 48.85-11.427 73.276-0.15071 0.968-0.15438 1.958-0.32714 2.9198-1.3073 7.3061-6.5685 11.477-13.372 10.628-6.4558-0.8075-10.248-5.7501-9.9833-15.746z"/>
<path d="m2111.3 1043.8c0.094 7.3306-4.047 12.38-10.486 13.002-6.8994 0.6677-11.968-3.4516-12.984-11.002-1.9935-14.807-3.628-29.662-5.706-44.456-1.534-10.911-3.5642-21.751-5.3102-32.633-0.4252-2.6514-0.9018-5.3506-0.8332-8.0143 0.1434-5.5651 3.8387-9.7309 9.2016-10.874 5.1093-1.0892 10.489 1.5156 12.815 6.3872 0.7278 1.5242 1.2351 3.2261 1.4789 4.8998 3.9232 26.898 7.7901 53.804 11.662 80.709 0.1041 0.7278 0.1213 1.4654 0.1617 1.98z"/>
<path d="m328.27 1326.3c-4e-3 6.9949-3.9637 11.795-9.7921 12.621-6.0748 0.8589-11.232-2.0866-12.954-8.2422-1.7754-6.3492-3.0815-12.86-4.1291-19.375-3.3425-20.776-6.4742-41.586-9.6635-62.389-0.22177-1.4457-0.39943-2.932-0.31488-4.3839 0.34796-6.0208 4.8176-10.766 10.57-11.358 5.6753-0.5844 11.171 3.1783 12.467 9.1195 1.039 4.7699 1.2767 9.7039 2.0866 14.53 3.5618 21.236 7.2032 42.457 10.81 63.687 0.37002 2.1723 0.69348 4.3508 0.92015 5.7905z"/>
<path d="m2112.1 1230c-3.4172 23.45-6.816 46.901-10.27 70.346-0.5329 3.623-1.1358 7.2534-2.0045 10.809-1.6712 6.8344-7.1787 10.738-13.375 9.7211-6.593-1.0844-10.732-6.8295-9.6611-14.088 1.6737-11.362 3.8522-22.65 5.4475-34.02 2.0351-14.522 3.7027-29.09 5.5369-43.637 0.2131-1.6945 0.2756-3.4393 0.74-5.064 1.6872-5.8971 6.9447-9.4049 12.768-8.6796 5.7513 0.7156 9.9159 5.4278 10.208 11.577 0.046 0.9766 0.01 1.9555 0.01 2.932 0.2009 0.033 0.4031 0.069 0.604 0.103z"/>
<path d="m1798.5 444.82c1.7105 0.86992 4.9831 1.7288 7.1493 3.7652 19.798 18.62 39.526 37.317 58.984 56.289 5.391 5.2563 4.8985 12.488-0.038 17.033-4.8716 4.4856-11.679 4.1646-17.128-1.0843-4.9365-4.7564-9.5128-9.8902-14.487-14.605-13.331-12.636-26.797-25.126-40.19-37.698-1.7791-1.6688-3.7015-3.28-5.0934-5.2465-2.622-3.7039-2.7077-7.8158-0.6836-11.842 2.0498-4.0739 5.6251-5.9547 11.487-6.6114z"/>
<path d="m2052.7 1456.1c-7.4752 0.2279-13.079-5.6692-12.363-12.8 0.2389-2.3929 1.1493-4.7331 1.8599-7.0647 6.968-22.921 13.958-45.834 20.941-68.747 0.5697-1.8709 0.9618-3.8191 1.7361-5.6018 2.5437-5.8603 8.6343-8.6392 14.524-6.767 5.4744 1.7398 9.0545 7.3294 7.8244 13.299-1.3319 6.4546-3.0754 12.848-5.0198 19.152-5.9804 19.388-12.159 38.715-18.223 58.079-1.8366 5.8665-5.2195 9.9012-11.28 10.451z"/>
<path d="m635.23 438.5c-0.0478 4.2969-2.415 7.2657-5.4989 9.9024-8.3611 7.1444-16.83 14.172-24.97 21.562-10.132 9.1979-19.975 18.712-29.945 28.086-1.2448 1.1713-2.415 2.4505-3.7811 3.4589-5.1374 3.7946-11.925 3.3032-16.007-1.0598-4.1683-4.4562-4.1928-10.918 2e-3 -16.027 0.92629-1.1284 1.9935-2.1552 3.0778-3.1403 18.087-16.427 36.178-32.851 54.3-49.239 1.6247-1.4691 3.3596-2.8916 5.2514-3.9722 3.8975-2.2263 7.9861-2.2299 11.865 0.0466 3.8963 2.2875 5.7513 5.8505 5.7047 10.383z"/>
<path d="m419.56 663.97c8.8744 0.0515 14.477 7.7362 12.045 15.323-0.58934 1.8379-1.6737 3.5238-2.5828 5.2538-11.148 21.198-22.304 42.392-33.46 63.586-0.79641 1.5132-1.4568 3.1195-2.4199 4.5187-3.3437 4.8691-8.9406 6.5943-14.164 4.493-5.2514-2.1123-8.0927-7.2118-7.0329-13.062 0.34184-1.8893 1.0684-3.7786 1.9641-5.4891 11.561-22.085 23.188-44.136 34.792-66.199 2.5326-4.814 5.951-8.3598 10.858-8.4248z"/>
<path d="m310.13 1150.8c0 11.234-2e-3 22.47 2e-3 33.704 0 1.7104 0.1556 3.427 0.038 5.1289-0.45334 6.5783-4.9439 11.077-11.174 11.3-6.3333 0.2303-11.357-3.7113-12.067-10.345-0.72657-6.7867-0.91894-13.655-0.93977-20.49-0.0576-19.055 0.0943-38.109 0.16786-57.164 2e-3 -0.7327 0.0208-1.4679 0.0809-2.1969 0.63835-7.5965 5.2416-12.249 11.964-12.1 6.6629 0.147 11.482 5.0529 11.515 12.589 0.0502 11.236-0.38105 22.473-0.59302 33.71-0.038 1.953-5e-3 3.9098-5e-3 5.8652h1.0108z"/>
<path d="m1097.1 225.14c6.9091 0.087 11.886 4.281 12.638 10.336 0.7351 5.9032-3.1305 11.272-9.6268 12.761-4.0371 0.92383-8.2201 1.1836-12.317 1.866-19.767 3.2922-39.528 6.6261-59.29 9.9539-0.9642 0.16173-1.9052 0.4754-2.8732 0.5918-6.8564 0.83316-12.513-2.9247-13.835-9.1526-1.3147-6.2095 2.3108-12.27 9.0031-13.826 8.8021-2.0462 17.707-3.7027 26.624-5.184 14.225-2.3623 28.496-4.4611 42.754-6.6261 2.4149-0.36758 4.8629-0.51215 6.9226-0.72045z"/>
<path d="m2e3 1570.4c-6.5796 0.1678-12.379-7.229-10.148-14.985 0.6678-2.323 1.9714-4.4672 3.0337-6.6714 9.2371-19.185 18.482-38.367 27.74-57.544 1.0611-2.2017 1.969-4.5297 3.3743-6.4974 3.3266-4.6596 9.3438-6.0613 14.41-3.6427 5.0566 2.4125 7.7178 7.9788 6.3431 13.473-0.3529 1.4139-0.925 2.7972-1.5585 4.1156-10.187 21.173-20.395 42.336-30.609 63.497-2.2778 4.7135-5.6202 8.0008-12.586 8.2545z"/>
<path d="m2037.4 761.95c-0.069 5.8885-3.2469 10.468-7.5315 12.042-4.6915 1.7227-10.241 0.36635-13.277-3.5924-1.4678-1.9138-2.4578-4.2112-3.5519-6.3896-9.6721-19.235-19.32-38.481-28.968-57.726-0.8773-1.7484-1.8734-3.4601-2.5338-5.2906-2.051-5.6814 0.2536-11.777 5.336-14.468 5.119-2.709 11.454-1.289 15.091 3.4981 1.028 1.3527 1.8378 2.8928 2.6061 4.4182 10.106 20.112 20.221 40.219 30.233 60.376 1.2852 2.5902 1.9995 5.4634 2.5962 7.1321z"/>
<path d="m861.59 305.08c-0.14826 4.4807-3.155 7.9727-8.0106 10.15-6.9079 3.0986-13.893 6.038-20.699 9.3462-13.617 6.62-27.135 13.445-40.693 20.19-8.2263 4.0911-15.079 2.7654-18.379-3.6169-3.2934-6.3713-0.57096-13.639 7.2498-17.324 20.764-9.7811 41.379-19.88 62.067-29.825 1.3135-0.631 2.7041-1.1811 4.1193-1.5083 7.4421-1.7251 14.426 3.9208 14.345 12.588z"/>
<path d="m909.29 292.79c-6.0588-0.11272-10.6-3.5103-12.056-8.2667-1.4703-4.7993 0.24382-10.165 4.4513-12.981 1.7999-1.2044 3.8902-2.1001 5.9706-2.747 20.56-6.3921 41.138-12.724 61.733-19.005 2.089-0.63712 4.3079-1.0917 6.4815-1.1566 5.6729-0.16786 10.476 3.7247 11.728 9.1991 1.1419 4.9953-1.452 10.424-6.3333 12.844-1.7362 0.86012-3.6733 1.3331-5.5418 1.9065-19.881 6.1066-39.763 12.205-59.651 18.286-2.5632 0.78538-5.1558 1.4629-6.7817 1.9212z"/>
<path d="m739.41 366.94c-0.0441 4.7821-3.2702 8.1111-7.7092 10.814-12.733 7.7558-25.421 15.586-38.062 23.49-5.3862 3.3694-10.602 7.0121-15.92 10.492-1.632 1.0696-3.2567 2.225-5.0394 2.9773-5.3237 2.2446-11.259 0.53788-14.372-3.9477-3.3339-4.803-2.6563-11.129 1.7362-15.355 1.0464-1.0072 2.274-1.855 3.5091-2.6355 18.584-11.765 37.164-23.539 55.812-35.202 2.0216-1.2645 4.3925-2.3084 6.7241-2.6747 7.0782-1.1101 13.157 4.2038 13.321 12.042z"/>
<path d="m2091.8 1135.9c0-9.7958-0.016-19.592 0.012-29.388 0.01-2.1968-0.091-4.4403 0.3002-6.582 0.9876-5.3947 5.4021-9.1624 10.701-9.4454 5.1963-0.2781 10.226 3.106 11.694 8.241 0.6629 2.3194 0.9079 4.8275 0.9202 7.2522 0.1005 20.573 0.1164 41.147 0.1127 61.722 0 1.7019-0.158 3.4442-0.5452 5.0971-1.4299 6.0919-6.3713 9.8178-12.255 9.3902-5.9522-0.4337-10.269-4.7061-10.723-11.021-0.2451-3.4062 0.07-6.8516 0.077-10.28 0.018-8.328 0.01-16.656 0.01-24.984h-0.3002z"/>
<path d="m1187.8 243.35c-9.0497 0-18.098-2e-3 -27.149 0-2.4456 0-4.9169 0.23402-7.3343-0.0233-5.6925-0.60527-9.9134-5.0431-10.401-10.63-0.4545-5.1963 2.7286-10.177 7.9053-11.929 1.8134-0.61262 3.8277-0.82581 5.7562-0.87237 20.062-0.47417 40.124-0.90913 60.188-1.2571 2.4125-0.0417 4.9365 0.15806 7.2326 0.83807 5.6558 1.6774 8.7409 6.5759 8.181 12.358-0.5502 5.6876-4.6339 9.7456-10.606 10.274-2.6735 0.23525-5.3813 0.0907-8.0732 0.0943-8.5656 7e-3 -17.132 1e-3 -25.701 1e-3v1.1468z"/>
<path d="m331.13 1374.1c5.3396-0.058 9.4332 2.8217 11.432 8.5644 1.8452 5.3004 3.1905 10.774 4.9549 16.103 3.9918 12.052 8.1405 24.055 12.146 36.102 0.84175 2.5314 1.7288 5.1448 1.9249 7.7705 0.40801 5.4805-2.9602 9.9576-8.2018 11.607-4.8005 1.5071-9.9588-0.2131-12.903-4.4892-0.95569-1.3883-1.7006-2.9872-2.2312-4.5898-5.9044-17.849-11.761-35.713-17.586-53.59-0.52685-1.6149-0.94466-3.3192-1.0537-5.0064-0.43986-6.8172 4.7809-12.401 11.519-12.472z"/>
<path d="m1280.6 221.51c18.907 2.4529 37.833 4.7539 56.706 7.436 7.4103 1.0525 11.619 6.6898 10.836 13.25-0.7818 6.5293-6.2182 10.818-13.801 9.987-13.605-1.4899-27.153-3.4797-40.732-5.2012-5.8174-0.73882-11.723-0.96671-17.462-2.0841-6.2156-1.2105-9.5262-6.2414-8.9859-12.376 0.5318-6.0135 4.8287-10.073 11.179-10.535 0.7291-0.0527 1.4642-7e-3 2.1993-7e-3 0.018-0.15561 0.041-0.31244 0.061-0.46927z"/>
<path d="m1413.5 244.8c0.8651 0.17521 2.5718 0.39085 4.1989 0.86992 17.34 5.1154 34.684 10.223 51.982 15.477 2.2778 0.69227 4.5653 1.8795 6.4044 3.3804 3.7419 3.0533 4.7993 8.1528 3.0986 12.685-1.6982 4.5285-5.7574 7.425-10.726 7.4274-1.6847 1e-3 -3.4282-0.25362-5.0443-0.73024-17.811-5.2502-35.619-10.514-53.39-15.9-5.9645-1.8072-8.9124-5.603-9.1305-11.01-0.2781-6.8798 4.8544-12.2 12.606-12.2z"/>
<path d="m413.14 1558.1c-0.47662 5.9976-2.6551 9.5741-7.0782 11.604-4.4623 2.0437-9.4307 1.2804-12.844-2.312-1.648-1.735-2.9357-3.9098-4.0139-6.0736-6.7719-13.563-13.45-27.173-20.122-40.785-0.85767-1.7545-1.681-3.5556-2.2214-5.4253-1.5953-5.5259 0.80989-11.156 5.7035-13.717 5.1056-2.6711 11.579-1.1554 15.031 3.65 0.98877 1.3735 1.6663 2.9822 2.4235 4.5138 6.8185 13.815 13.66 27.616 20.398 41.47 1.2596 2.5878 2.0841 5.385 2.7237 7.0746z"/></g><g fill="none">
<path d="m1730.9 2051.8c-9.1109 1.278-17.022 2.3856-25.639 3.5974-1.414-9.2727-2.9198-17.661-3.9184-26.109-0.9336-7.8758-3.1109-15.177-6.6788-22.32-10.178-20.375-19.906-40.973-29.835-61.473-1.039-2.1442-2.2263-4.2161-4.6658-5.9351 5.7575 39.521 11.512 79.045 17.385 119.36-8.127 2.5362-16.326 2.9246-25.462 4.2663-5.2612-32.193-9.5201-64.097-14.237-95.928-4.6976-31.686-9.2702-63.392-14.051-96.129 8.1038-1.1774 15.515-2.2716 22.933-3.324 2.7972-0.397 3.7995 1.5817 4.7601 3.6708 3.1746 6.8969 6.4092 13.764 9.5973 20.656 8.2238 17.783 16.428 35.575 24.667 53.353 0.6923 1.496 1.5683 2.9099 3.0312 4.2099-2.829-28.715-7.9849-57.082-11.457-86.382 8.6135-1.2828 16.492-2.4554 25.431-3.7884 9.5447 64.101 18.752 127.67 28.14 192.28z"/>
<path d="m1127.6 1901.9h26.028c8.4334 29.296 16.84 58.493 25.245 87.691 0.5391-0.078 1.0782-0.1605 1.6173-0.239 0.2989-28.891 0.5967-57.785 0.8981-86.882h25.81c0.1532 64.529-1.2656 128.55-1.6222 193.26-8.7298 1.1848-16.875 0.4815-26.02 0.2132 0-3.5753-0.2095-6.6886 0.036-9.764 1.5168-19.07-1.2204-37.396-7.6823-55.48-5.8432-16.352-10.276-33.207-15.36-49.828-0.6236-2.0412-1.4225-4.0273-2.1405-6.038-0.5023 0.048-1.0047 0.096-1.507 0.1434-0.1507 19.85-0.2536 39.703-0.4644 59.555-0.2132 20.056-0.5317 40.11-0.8148 60.948-8.6098 0.8687-16.729 0.4791-25.903 0.02 0.6297-64.693 1.2509-128.74 1.8807-193.6z"/>
<path d="m1098.8 2094.1h-25.488c-0.2487-12.305 0.729-23.92 1.1909-35.547 0.4632-11.66 0.7989-23.323 1.2204-35.826h-29.419c-0.4925 11.419-0.99 23.069-1.4984 34.718-0.5012 11.441-1.0133 22.88-1.5389 34.726-4.7613 0-8.8389 0.075-12.913-0.024-3.9061-0.093-7.8097-0.3713-12.615-0.6126-0.075-2.5008-0.2867-4.8385-0.1923-7.1653 1.7079-41.347 3.4576-82.692 5.184-124.04 0.3884-9.2972 0.5256-18.61 1.1725-27.889 0.3541-5.0921 1.0133-10.281 2.4419-15.16 3.2408-11.068 11.145-17.555 22.483-17.996 11.448-0.4423 23.054-0.033 34.414 1.4115 13.516 1.7202 21.236 11.454 22.248 26.109 0.337 4.8703 0.1483 9.7946-0.05 14.683-1.9567 48.199-3.96 96.395-5.9755 144.59-0.1103 2.6502-0.4313 5.2869-0.6641 8.0204zm-22.294-94.901c0.3185-3.2469 0.6628-5.6214 0.767-8.007 0.6322-14.406 1.2326-28.813 1.7913-43.22 0.1887-4.8839 0.4411-9.7775 0.2744-14.658-0.2083-6.1434-2.6367-8.9602-8.6061-10.03-3.0998-0.555-6.3259-0.6506-9.487-0.582-7.3135 0.163-10.519 3.2739-11.314 10.678-0.1556 1.4556-0.1446 2.9271-0.2071 4.3938-0.7253 17.335-1.4629 34.671-2.1638 52.008-0.097 2.4027-0.014 4.8103-0.014 8.2299 9.7591 0.3995 19.131 0.7854 28.959 1.1873z"/>
<path d="m1387.9 2090.1c-4.9549-64.802-9.8546-128.87-14.794-193.46 4.5016-0.4067 8.1062-0.7657 11.718-1.0524 10.497-0.8357 20.992-1.7068 31.497-2.4224 3.6561-0.2511 7.3551-0.3112 11.01-0.086 14.512 0.8907 24.197 8.72 28.095 22.755 0.9091 3.2812 1.5205 6.7033 1.79 10.098 2.9418 37.106 5.7918 74.22 8.6552 111.33 0.5097 6.593 1.2117 13.181 1.4176 19.783 0.5366 17.166-7.4385 26.675-24.61 28.683-12.396 1.4532-24.887 2.094-37.337 3.0754-5.543 0.4374-11.091 0.8258-17.443 1.2951zm24.191-25.486c7.7546-0.6506 14.571-0.8969 21.276-1.8857 5.6349-0.8307 7.4519-3.4098 7.5046-9.0312 0.026-2.6845-0.1948-5.3776-0.3982-8.0597-2.3623-30.97-4.7135-61.942-7.1334-92.908-0.6861-8.7728-1.4066-17.55-2.4554-26.285-0.5991-4.9892-3.2297-8.9712-8.6465-9.541-7.0219-0.7351-13.932 0.5269-21.32 1.4765 3.7395 48.945 7.4054 96.92 11.173 146.23z"/>
<path d="m751.66 1901.9c-1.496 10.515-3.4331 24.332-5.4315 38.143-4.2087 29.08-8.4138 58.161-12.712 87.229-0.67879 4.5898-1.4629 9.2225-2.8364 13.638-4.2614 13.698-13.804 20.704-28.174 19.566-11.684-0.9287-23.395-2.611-34.846-5.1043-15.216-3.3119-22.558-13.719-21.648-29.521 0.42148-7.3135 1.6774-14.59 2.7274-21.858 5.2526-36.353 10.499-72.706 15.92-109.03 0.7523-5.0443 1.9788-10.133 3.8252-14.876 4.1695-10.716 12.458-16.521 23.871-16.139 9.7431 0.3308 19.438 2.127 29.15 3.3094 1.9432 0.234 3.8779 0.5795 5.8015 0.9434 16.932 3.2053 24.882 13.088 24.353 33.704zm-56.884 133.98c7.9359 0.2683 10.881-2.0167 12.342-8.8499 0.56116-2.6282 0.91893-5.3029 1.3061-7.9666 4.3668-30.018 8.7372-60.037 13.07-90.06 1.2926-8.9577 2.7274-17.907 3.6084-26.91 0.6555-6.6763-2.1258-10.03-8.6073-11.561-2.3733-0.5624-4.8275-0.7805-7.2424-1.1725-14.857-2.4101-17.525-0.3284-19.652 14.645-3.6819 25.914-7.5169 51.809-11.271 77.715-1.8942 13.076-3.8669 26.139-5.5847 39.236-1.0243 7.8183 1.7288 11.559 9.3596 13.051 4.5554 0.8969 9.1918 1.3711 12.671 1.8734z"/>
<path d="m1234.2 2095.6c-1.7656-64.122-3.5299-128.11-5.3078-192.66 2.3623-0.3713 4.1806-0.8442 6.0148-0.9092 12.717-0.4496 25.437-0.8209 38.156-1.2007 1.4666-0.043 2.9381-0.048 4.4047 0 20.926 0.6678 32.714 11.826 33.904 32.728 0.821 14.411 1.0587 28.856 1.4556 43.288 0.7756 28.133 1.5046 56.266 2.1895 84.398 0.096 3.9061 0.1226 7.8489-0.321 11.718-1.1799 10.319-7.0194 16.965-16.858 20.02-2.7825 0.8638-5.7243 1.5487-8.6171 1.659-16.627 0.6383-33.263 1.0941-49.897 1.5573-1.414 0.039-2.8389-0.3223-5.124-0.6016zm25.416-24.101c6.8259 0 12.191 0.1654 17.543-0.035 9.9514-0.3811 12.109-2.6943 11.838-12.451-1.0697-38.698-2.165-77.399-3.291-116.1-0.092-3.1758-0.201-6.4019-0.8124-9.5029-1.0524-5.3348-4.1217-8.3807-9.514-8.6392-6.2659-0.3014-12.571 0.2156-19.799 0.4018 1.3576 49.201 2.6906 97.558 4.0347 146.32z"/>
<path d="m882.36 1886.9c6.7437 0.5403 12.319 0.9716 17.89 1.4409 9.9992 0.8429 20.051 1.2999 29.984 2.6416 21.797 2.9455 31.767 15.167 30.578 37.171-0.593 10.997-1.6185 21.971-2.5534 32.943-2.7396 32.193-5.5234 64.38-8.3182 96.566-0.2095 2.4309-0.4484 4.8862-0.9961 7.2559-2.7923 12.074-10.173 18.652-22.489 19.541-5.3421 0.3847-10.766 0.093-16.124-0.2916-12.451-0.8945-24.886-2.0107-37.321-3.0987-2.1258-0.1862-4.2246-0.6959-6.9582-1.1603 5.434-64.312 10.825-128.11 16.308-193.01zm11.635 172.12c7.6271 0.6126 14.388 1.4532 21.166 1.6088 5.6557 0.1311 7.9727-2.1467 9.0374-7.6407 0.32469-1.6724 0.3639-3.4025 0.50847-5.1092 2.8156-33.175 5.6312-66.347 8.4407-99.523 0.57831-6.8295 1.3012-13.653 1.643-20.495 0.26833-5.3727-0.68859-10.759-6.5293-12.702-6.9263-2.3022-14.237-2.0719-21.949-2.252-4.1327 49.02-8.1932 97.188-12.317 146.11z"/>
<path d="m808.92 2074.3c-7.4434-0.8969-18.207-1.7729-28.815-3.5728-15.933-2.6992-24.029-12.935-23.576-29.501 0.20094-7.3233 1.2534-14.631 2.0903-21.926 4.292-37.461 8.6404-74.918 12.972-112.37 0.11273-0.974 0.21197-1.9506 0.37493-2.9173 3.1195-18.444 13.501-26.953 32.125-25.687 10.005 0.6776 20.008 1.8281 29.918 3.3768 15.98 2.4933 24.668 12.573 24.3 28.954-0.23647 10.489-1.8403 20.96-3.0251 31.416-3.775 33.333-7.6308 66.653-11.487 99.977-0.33694 2.9148-0.77313 5.8297-1.3796 8.7017-3.5054 16.573-13.309 24.223-33.497 23.552zm23.091-158.37c0.14948-6.7891-2.2924-10.284-8.8377-11.592-5.0198-0.9998-10.167-1.594-15.282-1.8329-5.5736-0.2586-8.6735 2.2495-10.199 7.5928-0.53298 1.8636-0.71186 3.8411-0.93731 5.7795-2.7838 23.818-5.5712 47.636-8.3084 71.461-1.8428 16.046-3.7002 32.09-5.369 48.156-0.86135 8.2802 1.9922 11.881 10.101 13.193 4.1021 0.6654 8.2483 1.1248 12.393 1.4483 7.4789 0.582 10.7-2.029 12.01-9.6341 0.53911-3.133 0.88095-6.3039 1.2448-9.4626 2.7678-24.067 5.5197-48.136 8.2753-72.206 1.6406-14.345 3.2824-28.689 4.9096-42.903z"/>
<path d="m1475.3 1888.5c7.4458-0.8968 13.934-1.7276 20.435-2.4529 8.7581-0.9765 17.526-1.8783 26.29-2.7997 1.4592-0.1531 2.9246-0.2842 4.3912-0.3688 18.751-1.0794 29.176 7.0121 31.92 25.685 1.9935 13.552 3.1403 27.231 4.5983 40.862 0.5992 5.5969 1.2167 11.202 1.4826 16.819 0.5219 11.037-1.9653 20.96-12.054 28.224 8.665 25.697 17.319 51.355 26.316 78.031-8.4125 0.9863-16.06 1.8808-24.406 2.8597-8.4579-25.409-16.783-50.419-25.325-76.075-4.9965 0.5219-9.7223 1.0145-15.387 1.6087 2.7054 26.011 5.3482 51.43 8.0866 77.755-8.6943 0.9692-16.81 1.8758-25.812 2.8818-6.854-64.414-13.627-128.09-20.536-193.03zm28.421 20.514c2.5142 23.571 4.934 46.268 7.4115 69.48 5.8824-0.582 10.726-0.9741 15.546-1.5598 8.4186-1.0243 11.423-4.5517 11.374-13.174-0.01-1.4666-0.075-2.9406-0.2304-4.4011-1.4102-13.147-2.8192-26.295-4.3091-39.436-0.2194-1.9237-0.7193-3.8534-1.3527-5.6888-1.5169-4.4011-4.6621-7.0329-9.3584-6.8369-6.0356 0.2512-12.05 0.9961-19.081 1.6161z"/>
<path d="m592.32 1846.5c21.813 3.7688 42.223 7.2939 63.477 10.965-1.371 7.8967-2.6024 14.997-3.9943 23.016-12.812-2.0437-24.99-3.9845-37.85-6.0355-3.351 19.396-6.5832 38.108-9.9502 57.594 11.062 2.0217 21.552 3.9417 32.79 5.9952 0.0564 7.7803-1.8281 14.952-3.6512 23.041-10.878-1.7632-21.403-3.4699-32.958-5.3409-5.739 28.525-9.6427 57.029-15.318 85.894-8.5412 0.1054-16.402-2.2189-25.475-3.7309 10.785-63.917 21.796-127.17 32.93-191.4z"/>
<path d="m1725.1 1856c8.8389-1.5242 16.704-2.8794 25.566-4.406 11.25 63.849 21.8 127.22 32.841 191.4-8.6784 1.5119-16.745 2.9173-25.674 4.4721-10.917-63.858-21.715-127.02-32.734-191.47z"/>
<path d="m1625.6 2066.6c-9.1207 1.1652-17.038 2.1748-25.789 3.2934-8.1687-64.496-16.237-128.2-24.395-192.63 8.8463-1.1628 16.743-2.2018 25.717-3.3817 8.3635 64.263 16.344 127.97 24.467 192.71z"/>
<path d="m1816.8 2037.4c-4.6816-8.5595-9.0325-16.483-13.358-24.422-10.905-20.003-21.85-39.986-32.624-60.059-1.1996-2.2373-2.1834-5.0823-1.9506-7.5218 3.0202-31.701 6.2744-63.378 9.4981-95.057 0.097-0.9472 0.4962-1.8624 0.9949-3.6562 7.0794-1.213 14.373-2.4652 22.782-3.9073-1.1076 10.838-2.0682 20.506-3.0888 30.167-2.241 21.193-4.4427 42.391-6.8332 63.567-0.4913 4.3582 0.37 8.029 2.5412 11.848 14.772 25.981 29.357 52.07 43.994 78.129 0.9495 1.6896 1.8342 3.4172 3.2101 5.9902-8.2398 2.7874-16.454 3.1109-25.165 4.9218z"/>
<path d="m434.27 2030.2c0.1017 6.239-4.5947 11.427-10.847 11.561-2.3868 0.05-4.8728-0.484-7.175-1.1946-44.43-13.709-88.84-27.482-133.25-41.269-1.8611-0.5771-3.7799-1.1677-5.4413-2.1442-4.6964-2.7568-6.7241-8.3035-5.0995-13.329 1.7337-5.3605 6.892-8.7728 12.501-8.0719 1.9236 0.2413 3.8142 0.8735 5.6802 1.4531 43.947 13.614 87.889 27.244 131.83 40.888 1.8648 0.5795 3.7701 1.1505 5.4952 2.0412 4.036 2.0817 6.0392 5.559 6.3039 10.065z"/>
<path d="m1973.2 2047.7c-6.8233 0.1225-11.338-3.0913-12.832-8.2508-1.5389-5.3151 0.903-10.924 6.1152-13.543 1.9493-0.9765 4.1143-1.5511 6.2144-2.2017 43.236-13.435 86.476-26.857 129.72-40.268 2.1037-0.653 4.2062-1.4029 6.3651-1.7472 5.6092-0.8944 10.99 2.3574 12.83 7.5451 1.9702 5.5614-0.3847 11.489-5.8517 14.246-1.9506 0.9863-4.0948 1.6198-6.1936 2.2716-43.477 13.483-86.959 26.948-130.45 40.398-2.3206 0.7168-4.7037 1.2338-5.9192 1.5499z"/>
<path d="m331.44 1863.9c0.97652 0.2303 2.8879 0.615 4.7625 1.1345 42.68 11.884 85.358 23.777 128.03 35.702 1.8734 0.5244 3.7774 1.1628 5.4536 2.1246 4.7 2.6894 6.7425 8.1001 5.2404 13.291-1.4041 4.8459-5.7011 8.1528-10.977 8.0793-2.1613-0.031-4.3619-0.5502-6.4644-1.1346-41.973-11.685-83.937-23.405-125.89-35.15-2.3463-0.6555-4.7711-1.3085-6.8822-2.4652-4.4917-2.4578-6.6053-7.7276-5.4192-12.568 1.2694-5.1877 5.8567-8.8757 12.153-9.0141z"/>
<path d="m502.89 1818.3c-0.8932-0.2254-2.7948-0.6677-4.6731-1.1921-41.733-11.635-83.464-23.277-125.19-34.932-1.8832-0.5269-3.8007-1.0194-5.5798-1.8073-5.6741-2.5105-8.4701-8.2324-6.8785-13.786 1.6847-5.8824 7.4054-9.378 13.717-8.3084 1.4409 0.2439 2.8413 0.7352 4.2565 1.1297 41.724 11.673 83.448 23.345 125.17 35.027 1.8844 0.5268 3.8166 0.9789 5.5981 1.757 5.7047 2.4884 8.3831 8.0094 6.8479 13.796-1.4433 5.4364-6.2144 8.7078-13.266 8.3157z"/>
<path d="m2034.1 1776c-0.2389 4.406-2.3843 8.0339-6.8577 10.003-2.0045 0.8834-4.1474 1.474-6.2646 2.0658-41.493 11.594-82.988 23.179-124.49 34.723-2.339 0.6506-4.7698 1.2803-7.1713 1.3379-5.592 0.1311-9.987-3.3865-11.312-8.6294-1.2767-5.0467 1.1113-10.55 5.9204-13.018 1.9347-0.9936 4.1193-1.5389 6.2353-2.1319 41.721-11.692 83.444-23.363 125.18-35.018 2.1148-0.5905 4.2627-1.2632 6.4313-1.4163 6.7646-0.4828 12.402 4.9549 12.337 12.083z"/>
<path d="m1931.6 1930.1c-6.7572-0.093-11.193-3.5103-12.49-8.725-1.2669-5.0872 1.104-10.505 5.962-12.996 1.9359-0.9913 4.1218-1.5316 6.2378-2.1246 41.717-11.695 83.44-23.368 125.17-35.027 2.1135-0.5881 4.2626-1.2497 6.43-1.4139 5.3519-0.4092 10.244 3.0631 11.787 8.0719 1.6737 5.4327-0.5747 11.07-5.7023 13.698-1.9359 0.9913-4.1107 1.5622-6.2242 2.154-41.957 11.74-83.922 23.458-125.89 35.161-2.1075 0.5845-4.2688 0.9753-5.2772 1.202z"/>
<path d="m399.08 1956.1c-0.11027 6.4276-5.4572 11.547-12.004 11.286-1.9322-0.077-3.873-0.5881-5.7599-1.0942-24.589-6.5857-49.17-13.2-73.749-19.829-1.8832-0.5097-3.8215-0.9888-5.554-1.8428-5.2244-2.5779-7.6872-8.192-6.1238-13.513 1.5671-5.3322 6.6898-8.8683 12.327-8.4162 1.2056 0.096 2.3966 0.4619 3.5753 0.778 25.307 6.7536 50.623 13.473 75.91 20.302 7.9445 2.1454 11.483 6.1679 11.378 12.33z"/>
<path d="m2007.4 1973.4c-5.7133-0.098-10.307-3.4797-11.771-8.1773-1.5671-5.0296 0.4729-10.558 5.2085-13.302 1.871-1.0868 4.036-1.7595 6.1471-2.3256 24.814-6.6555 49.641-13.262 74.469-19.862 1.6492-0.4374 3.3229-0.941 5.0088-1.0476 5.3262-0.3369 10.246 3.1416 11.755 8.1246 1.572 5.1975-0.3798 10.596-5.1191 13.31-1.8734 1.0746-4.0518 1.6946-6.1605 2.2643-24.566 6.6335-49.144 13.229-73.728 19.802-2.1221 0.5636-4.303 0.903-5.8101 1.2142z"/>
<path d="m355.39 1811c1.1762 0.2867 3.0876 0.6983 4.9671 1.2228 23.595 6.566 47.187 13.138 70.771 19.74 1.8795 0.5269 3.7946 1.0868 5.5222 1.9653 5.2698 2.6845 7.6173 8.1344 6.0306 13.566-1.5634 5.3531-6.6629 8.8377-12.392 8.2275-2.1724-0.2315-4.3116-0.9091-6.4325-1.5009-22.884-6.3749-45.765-12.76-68.636-19.185-2.3463-0.6604-4.7686-1.316-6.8871-2.4677-4.7454-2.5754-6.8871-8.2128-5.3629-13.229 1.5512-5.1056 6.3051-8.5167 12.419-8.339z"/>
<path d="m2051.7 1828.5c-0.033 5.1068-2.8316 9.1109-8.1553 11.035-3.6781 1.3281-7.4997 2.2642-11.273 3.3191-20.52 5.7342-41.046 11.458-61.576 17.156-2.3561 0.6555-4.7343 1.4286-7.148 1.6394-5.6484 0.4901-10.745-3.2935-12.115-8.66-1.3098-5.135 0.9961-10.51 5.8505-13.038 1.9322-1.0047 4.0935-1.6246 6.2059-2.2164 23.346-6.5502 46.699-13.064 70.058-19.564 1.8795-0.5219 3.7921-1.1199 5.7194-1.2583 6.8038-0.484 12.478 4.8912 12.434 11.587z"/>
<path d="m457.79 1971.3c0.19114 6.2144-4.4072 11.458-10.642 11.695-2.3745 0.091-4.8789-0.3921-7.1554-1.1346-5.3335-1.7349-10.619-3.6475-15.82-5.7439-6.5207-2.6294-9.4981-8.7103-7.4581-14.675 2.0694-6.0563 8.0327-9.3094 14.742-7.3367 6.5428 1.9261 12.953 4.3655 19.278 6.9324 4.5383 1.844 6.9177 5.755 7.0562 10.263z"/>
<path d="m1978.1 1971.2c-0.05 4.1254-1.8183 8.0119-5.9522 9.7566-6.9496 2.9345-14.101 5.4511-21.314 7.67-3.895 1.1971-7.7594 0.1507-10.836-2.8315-5.7097-5.5381-4.531-15.079 2.8229-18.484 6.6151-3.0607 13.573-5.5663 20.605-7.485 7.7129-2.1087 14.576 3.4 14.675 11.374z"/>
<path d="m475.34 1842.9c6.6874 1.4641 14.044 4.1045 20.232 8.9357 3.775 2.9454 4.2847 7.5952 2.573 12.077-1.7141 4.4917-5.1276 7.3637-10 7.2314-8.3157-0.223-15.475-4.1279-22.037-8.7274-3.7419-2.6233-4.3631-8.6074-2.3084-12.765 2.1148-4.2786 5.6128-6.6261 11.541-6.7523z"/>
<path d="m1931.7 1860.6c-0.2696 3.9698-1.9286 7.7729-5.9731 9.797-4.5701 2.29-9.2886 4.4011-14.14 5.9829-7.1848 2.3451-13.366-0.593-15.606-6.8589-2.2006-6.1508 0.8086-11.974 7.9101-15.055 4.2479-1.8428 8.4469-3.9869 12.89-5.1521 7.7092-2.018 14.727 3.34 14.92 11.286z"/></g><g fill="#fff">
<path d="m1076.5 1999.2c-9.8277-0.4019-19.2-0.7878-28.96-1.1873 0-3.4196-0.083-5.8272 0.014-8.2299 0.7008-17.337 1.4384-34.673 2.1638-52.008 0.062-1.4667 0.051-2.9382 0.207-4.3938 0.7952-7.4041 4.0017-10.515 11.314-10.678 3.1612-0.07 6.3872 0.026 9.4871 0.582 5.9694 1.0697 8.3978 3.8865 8.6061 10.03 0.1666 4.8789-0.086 9.7737-0.2744 14.658-0.5588 14.409-1.1604 28.815-1.7914 43.22-0.1041 2.3856-0.4472 4.7589-0.7657 8.007z"/>
<path d="m1412.1 2064.7c-3.7676-49.314-7.4335-97.289-11.173-146.24 7.3882-0.9495 14.299-2.2115 21.32-1.4764 5.4168 0.5698 8.0462 4.5518 8.6465 9.541 1.0476 8.7347 1.7693 17.512 2.4554 26.285 2.4211 30.966 4.7723 61.937 7.1334 92.908 0.2034 2.6821 0.4239 5.3751 0.3982 8.0596-0.053 5.6215-1.8697 8.2006-7.5046 9.0313-6.7058 0.9888-13.522 1.2363-21.276 1.8869z"/>
<path d="m694.78 2035.9c-3.4797-0.5023-8.116-0.9765-12.67-1.8709-7.6308-1.4936-10.384-5.2331-9.3596-13.051 1.7166-13.097 3.6892-26.161 5.5847-39.236 3.7529-25.905 7.5892-51.8 11.271-77.715 2.1258-14.974 4.7944-17.055 19.652-14.645 2.415 0.3921 4.8691 0.6102 7.2424 1.1726 6.4815 1.5315 9.2628 4.8838 8.6073 11.561-0.88217 9.0031-2.3157 17.952-3.6083 26.91-4.3325 30.023-8.7029 60.042-13.07 90.06-0.38718 2.6637-0.74495 5.3384-1.3061 7.9665-1.4617 6.8295-4.4072 9.1158-12.343 8.8475z"/>
<path d="m1259.6 2071.5c-1.3441-48.766-2.6771-97.123-4.0335-146.32 7.2277-0.1862 13.533-0.7032 19.799-0.4018 5.3911 0.2585 8.4604 3.3044 9.5141 8.6392 0.6114 3.101 0.7204 6.3271 0.8123 9.5029 1.126 38.698 2.2214 77.399 3.291 116.1 0.2708 9.7566-1.8869 12.071-11.838 12.451-5.3531 0.1997-10.718 0.035-17.544 0.035z"/>
<path d="m894 2059c4.1242-48.926 8.1846-97.093 12.317-146.11 7.7117 0.1789 15.023-0.05 21.949 2.252 5.8407 1.9432 6.7964 7.3294 6.5293 12.702-0.34185 6.8417-1.066 13.664-1.643 20.495-2.8095 33.175-5.6239 66.347-8.4407 99.523-0.14457 1.7067-0.18378 3.4368-0.50847 5.1092-1.0647 5.494-3.3817 7.773-9.0374 7.6407-6.778-0.1556-13.539-0.9962-21.166-1.6088z"/>
<path d="m832.01 1915.9c-1.6271 14.215-3.2677 28.559-4.9108 42.903-2.7568 24.07-5.5075 48.139-8.2753 72.206-0.36389 3.1587-0.70574 6.3296-1.2448 9.4626-1.3098 7.6051-4.531 10.216-12.01 9.6341-4.1438-0.3235-8.2912-0.7829-12.393-1.4483-8.1087-1.311-10.962-4.9132-10.101-13.193 1.6688-16.064 3.5263-32.11 5.369-48.156 2.7372-23.825 5.5246-47.644 8.3084-71.461 0.22667-1.9384 0.40555-3.9147 0.93731-5.7795 1.5254-5.3433 4.6253-7.8514 10.199-7.5928 5.1154 0.2389 10.263 0.8331 15.282 1.8329 6.5465 1.3086 8.9884 4.803 8.8389 11.592z"/>
<path d="m1503.7 1909c7.0292-0.62 13.044-1.3637 19.082-1.6149 4.6964-0.196 7.8403 2.4358 9.3584 6.8369 0.6335 1.8354 1.1334 3.7639 1.3527 5.6888 1.4899 13.141 2.8977 26.288 4.3092 39.436 0.1556 1.4592 0.2205 2.9344 0.2303 4.401 0.049 8.6221-2.9553 12.15-11.374 13.174-4.8201 0.5869-9.6635 0.9789-15.546 1.5597-2.4775-23.215-4.8985-45.91-7.4127-69.481z"/>
</g></g><rect x="-1266.6" y="-446.71" width="4282.1" height="3343.2" fill="#fff" fill-opacity="0" stroke-width="1.2252"/></svg>
